<svg width="11" height="12" viewBox="0 0 11 12" fill="none" xmlns="http://www.w3.org/2000/svg">
<path fill-rule="evenodd" clip-rule="evenodd" d="M5.68704 8.67092C5.51996 8.4899 5.51996 8.19643 5.68704 8.01542L7.52366 6.02562H1.71128C1.47499 6.02562 1.28345 5.8181 1.28345 5.56212C1.28345 5.30613 1.47499 5.09861 1.71128 5.09861H7.52367L5.68704 3.10881C5.51996 2.9278 5.51996 2.63432 5.68704 2.45331C5.85412 2.2723 6.125 2.2723 6.29208 2.45331L8.85905 5.23436C8.90007 5.2788 8.93102 5.33002 8.9519 5.38469C8.97282 5.43934 8.98436 5.49927 8.98436 5.56212C8.98436 5.62596 8.97245 5.68679 8.95089 5.74214C8.93165 5.79167 8.9041 5.83832 8.86826 5.87958C8.86488 5.88347 8.86144 5.8873 8.85795 5.89106L6.29208 8.67092C6.125 8.85193 5.85412 8.85193 5.68704 8.67092Z" fill="black"/>
<mask id="mask0" mask-type="alpha" maskUnits="userSpaceOnUse" x="1" y="2" width="8" height="7">
<path fill-rule="evenodd" clip-rule="evenodd" d="M5.68704 8.67092C5.51996 8.4899 5.51996 8.19643 5.68704 8.01542L7.52366 6.02562H1.71128C1.47499 6.02562 1.28345 5.8181 1.28345 5.56212C1.28345 5.30613 1.47499 5.09861 1.71128 5.09861H7.52367L5.68704 3.10881C5.51996 2.9278 5.51996 2.63432 5.68704 2.45331C5.85412 2.2723 6.125 2.2723 6.29208 2.45331L8.85905 5.23436C8.90007 5.2788 8.93102 5.33002 8.9519 5.38469C8.97282 5.43934 8.98436 5.49927 8.98436 5.56212C8.98436 5.62596 8.97245 5.68679 8.95089 5.74214C8.93165 5.79167 8.9041 5.83832 8.86826 5.87958C8.86488 5.88347 8.86144 5.8873 8.85795 5.89106L6.29208 8.67092C6.125 8.85193 5.85412 8.85193 5.68704 8.67092Z" fill="white"/>
</mask>
<g mask="url(#mask0)">
<path fill-rule="evenodd" clip-rule="evenodd" d="M0 1.11242H10.2679V12.2366H0V1.11242Z" fill="#00529B"/>
</g>
</svg>
