<svg width="3" height="6" viewBox="0 0 3 6" fill="none" xmlns="http://www.w3.org/2000/svg">
<path d="M0.49777 5.36542e-05C0.561808 -0.00012883 0.62508 0.0117165 0.682939 0.0347189C0.740798 0.0577213 0.791772 0.0912965 0.832115 0.132977L2.90249 2.28849C2.96553 2.35277 3 2.4334 3 2.51661C3 2.59982 2.96553 2.68046 2.90249 2.74474L0.759245 4.90025C0.686486 4.97361 0.581934 5.01975 0.468588 5.02851C0.355242 5.03727 0.242387 5.00793 0.15485 4.94695C0.067313 4.88597 0.0122643 4.79835 0.00181392 4.70335C-0.0086364 4.60836 0.0263677 4.51377 0.0991259 4.44041L2.01519 2.51482L0.163424 0.589226C0.111007 0.536494 0.0777112 0.472281 0.0674753 0.404185C0.0572394 0.336089 0.0704918 0.266961 0.105665 0.20498C0.140838 0.142999 0.19646 0.0907597 0.265948 0.0544429C0.335436 0.018126 0.415883 -0.000748131 0.49777 5.36542e-05Z" fill="#00529B"/>
</svg>
