<svg width="12" height="10" viewBox="0 0 12 10" fill="none" xmlns="http://www.w3.org/2000/svg">
<path fill-rule="evenodd" clip-rule="evenodd" d="M6.7125 7.79464C6.53289 7.63192 6.53289 7.3681 6.7125 7.20538L8.68687 5.41668H2.43855C2.18455 5.41668 1.97864 5.23013 1.97864 5.00001C1.97864 4.76989 2.18455 4.58334 2.43855 4.58334H8.68687L6.7125 2.79464C6.53289 2.63192 6.53289 2.3681 6.7125 2.20538C6.89211 2.04266 7.18331 2.04266 7.36292 2.20538L10.1217 4.70478C10.124 4.70679 10.1262 4.70882 10.1284 4.71087C10.1695 4.74953 10.2008 4.79361 10.2222 4.84052C10.2447 4.88965 10.2571 4.94351 10.2571 5.00001C10.2571 5.05651 10.2447 5.11038 10.2222 5.1595C10.2008 5.20641 10.1695 5.2505 10.1284 5.28915M10.1218 5.29518L7.36292 7.79464C7.18331 7.95736 6.89211 7.95736 6.7125 7.79464" fill="black"/>
<mask id="mask0" mask-type="alpha" maskUnits="userSpaceOnUse" x="1" y="2" width="10" height="6">
<path fill-rule="evenodd" clip-rule="evenodd" d="M6.7125 7.79464C6.53289 7.63192 6.53289 7.3681 6.7125 7.20538L8.68687 5.41668H2.43855C2.18455 5.41668 1.97864 5.23013 1.97864 5.00001C1.97864 4.76989 2.18455 4.58334 2.43855 4.58334H8.68687L6.7125 2.79464C6.53289 2.63192 6.53289 2.3681 6.7125 2.20538C6.89211 2.04266 7.18331 2.04266 7.36292 2.20538L10.1217 4.70478C10.124 4.70679 10.1262 4.70882 10.1284 4.71087C10.1695 4.74953 10.2008 4.79361 10.2222 4.84052C10.2447 4.88965 10.2571 4.94351 10.2571 5.00001C10.2571 5.05651 10.2447 5.11038 10.2222 5.1595C10.2008 5.20641 10.1695 5.2505 10.1284 5.28915M10.1218 5.29518L7.36292 7.79464C7.18331 7.95736 6.89211 7.95736 6.7125 7.79464" fill="white"/>
</mask>
<g mask="url(#mask0)">
<path fill-rule="evenodd" clip-rule="evenodd" d="M0.598877 1H11.6369V11H0.598877V1Z" fill="#00529B"/>
</g>
</svg>
