<svg width="21" height="21" viewBox="0 0 21 21" fill="none" xmlns="http://www.w3.org/2000/svg">
<path d="M19.0241 16.794V10.0991C19.0241 8.96137 19.0241 8.39248 18.8786 7.86781C18.7497 7.40303 18.5378 6.96539 18.2531 6.57604C17.9317 6.13652 17.4854 5.78375 16.5928 5.07821L14.1368 3.13693L14.1368 3.13693C12.7191 2.01635 12.0103 1.45606 11.2256 1.24097C10.5334 1.05122 9.80287 1.05122 9.11066 1.24097C8.326 1.45607 7.61716 2.01635 6.19947 3.13693L3.74347 5.07821C2.85087 5.78375 2.40456 6.13652 2.0832 6.57604C1.79851 6.96539 1.58659 7.40303 1.45767 7.86781C1.31213 8.39248 1.31213 8.96137 1.31213 10.0991V16.794C1.31213 17.4507 1.31213 17.779 1.38851 18.0474C1.57805 18.7135 2.09866 19.2341 2.76472 19.4236C3.0331 19.5 3.36144 19.5 4.01813 19.5H4.59913C4.7152 19.5 4.77323 19.5 4.82227 19.4976C5.84968 19.4471 6.67125 18.6255 6.72172 17.5981C6.72413 17.5491 6.72413 17.4911 6.72413 17.375V14.444C6.72413 12.5419 8.26606 11 10.1681 11C12.0702 11 13.6121 12.5419 13.6121 14.444V17.375C13.6121 17.4911 13.6121 17.5491 13.6145 17.5981C13.665 18.6255 14.4866 19.4471 15.514 19.4976C15.563 19.5 15.6211 19.5 15.7371 19.5H16.3181C16.9748 19.5 17.3032 19.5 17.5715 19.4236C18.2376 19.2341 18.7582 18.7135 18.9478 18.0474C19.0241 17.779 19.0241 17.4507 19.0241 16.794Z" stroke="#00529B" stroke-width="2"/>
</svg>
