<svg width="341" height="86" viewBox="0 0 341 86" fill="none" xmlns="http://www.w3.org/2000/svg">
<g filter="url(#filter0_d)">
<path d="M332.837 0H8.1625C5.86361 0 4 1.38304 4 3.08911V74.9109C4 76.617 5.86361 78 8.1625 78H332.837C335.136 78 337 76.617 337 74.9109V3.08911C337 1.38304 335.136 0 332.837 0Z" fill="#00529B"/>
<path d="M8.1625 0.25H332.837C333.939 0.25 334.926 0.581575 335.632 1.10554C336.338 1.62951 336.75 2.33355 336.75 3.08911V74.9109C336.75 75.6665 336.338 76.3705 335.632 76.8945C334.926 77.4184 333.939 77.75 332.837 77.75H8.1625C7.06131 77.75 6.07418 77.4184 5.36815 76.8945C4.66211 76.3705 4.25 75.6665 4.25 74.9109V3.08911C4.25 2.33355 4.66211 1.62951 5.36815 1.10554C6.07418 0.581575 7.06131 0.25 8.1625 0.25Z" stroke="#00529B" stroke-width="0.5"/>
</g>
<defs>
<filter id="filter0_d" x="0" y="0" width="341" height="86" filterUnits="userSpaceOnUse" color-interpolation-filters="sRGB">
<feFlood flood-opacity="0" result="BackgroundImageFix"/>
<feColorMatrix in="SourceAlpha" type="matrix" values="0 0 0 0 0 0 0 0 0 0 0 0 0 0 0 0 0 0 127 0"/>
<feOffset dy="4"/>
<feGaussianBlur stdDeviation="2"/>
<feColorMatrix type="matrix" values="0 0 0 0 0.0898784 0 0 0 0 0.410448 0 0 0 0 0.695833 0 0 0 0.13 0"/>
<feBlend mode="normal" in2="BackgroundImageFix" result="effect1_dropShadow"/>
<feBlend mode="normal" in="SourceGraphic" in2="effect1_dropShadow" result="shape"/>
</filter>
</defs>
</svg>
