<svg width="5" height="10" viewBox="0 0 5 10" fill="none" xmlns="http://www.w3.org/2000/svg">
<path d="M0.947244 9.99957L0.255715 9.96118C0.220057 9.9592 0.185125 9.94977 0.152943 9.93344C0.120762 9.91711 0.0919712 9.8942 0.0682383 9.86604C0.0445054 9.83788 0.026303 9.80504 0.0146849 9.7694C0.00306693 9.73376 -0.00173527 9.69605 0.00055643 9.65844L0.82708 0L4.63329 1.08403L5 0.978438L3.85323 9.52874C3.84346 9.59306 3.8132 9.65194 3.76744 9.69565C3.72168 9.73936 3.66316 9.76529 3.60155 9.76916L2.8561 9.80582C2.81882 9.808 2.78152 9.802 2.74656 9.7882C2.71159 9.77439 2.67972 9.75308 2.65295 9.72561C2.62619 9.69814 2.60512 9.66511 2.59106 9.62861C2.57701 9.5921 2.57029 9.55292 2.57131 9.51353L2.70638 4.38179C2.70702 4.35806 2.69921 4.33494 2.68449 4.31699C2.66977 4.29904 2.64922 4.28755 2.62688 4.2848C2.60454 4.28205 2.58203 4.28822 2.56379 4.30211C2.54555 4.31601 2.5329 4.3366 2.52834 4.35985L1.22573 9.77293C1.21343 9.83715 1.18041 9.89489 1.1323 9.9363C1.08418 9.97771 1.02395 10.0002 0.961869 10C0.957026 10 0.95215 9.99988 0.947244 9.99957Z" fill="#2F2E41"/>
</svg>
