<svg width="4" height="9" viewBox="0 0 4 9" fill="none" xmlns="http://www.w3.org/2000/svg">
<path d="M2.64011 8.05556C2.10958 8.05568 1.60027 7.84395 1.22206 7.46604C0.843851 7.08813 0.627055 6.57434 0.618446 6.03551C0.593846 4.47387 0.581106 2.54981 0.581106 2.32992C0.580763 1.79497 0.656579 1.26278 0.806199 0.749876L0.805489 0.749698C0.893841 0.492252 1.00055 0.24169 1.12476 0C0.743456 0.516149 0.44 1.08713 0.224385 1.69413L0.225094 1.69431C0.0754741 2.20722 -0.000341187 2.73941 1.15418e-06 3.27435C1.15418e-06 3.49425 0.0127412 5.4183 0.0373417 6.97995C0.0459503 7.51877 0.262746 8.03257 0.640958 8.41048C1.01917 8.78839 1.52848 9.00012 2.059 9V9C2.49643 8.99992 2.92205 8.85578 3.27201 8.5892C3.62196 8.32263 3.8774 7.94798 4 7.52146C3.62827 7.86575 3.14316 8.05628 2.64011 8.05556V8.05556Z" fill="#3F3D56"/>
</svg>
