<svg width="3" height="3" viewBox="0 0 3 3" fill="none" xmlns="http://www.w3.org/2000/svg">
<path d="M0 1.43917C0.211833 1.51619 0.142514 2.10694 0.309905 2.33609C0.460902 2.54279 0.678354 2.33022 0.868399 2.25326C1.10833 2.15611 1.35946 2.29843 1.58098 2.47988C1.8025 2.66132 2.0161 2.8865 2.25776 2.97103C2.49942 3.05556 2.78591 2.96028 2.92138 2.61703C3.05091 2.28883 3.00323 1.84624 2.90189 1.49169C2.7759 1.05086 2.57816 0.677501 2.33107 0.413905C2.08399 0.15031 1.79744 0.00701392 1.50389 0.00025097C1.21033 -0.00651198 0.921506 0.123529 0.670125 0.37564C0.418744 0.627752 0.214857 0.991859 0.0815592 1.42671" fill="#2F2E41"/>
</svg>
