<svg width="42" height="31" viewBox="0 0 42 31" fill="none" xmlns="http://www.w3.org/2000/svg">
<path d="M35.7512 30.8322C37.3305 30.3946 39.0096 29.9382 40.2621 28.8979C41.3814 27.9683 42.137 26.5487 41.6733 25.1545C41.2106 23.7632 39.8246 22.8354 38.3936 22.374C37.582 22.1123 36.7328 21.9671 35.8841 21.8531C34.9614 21.7291 34.0346 21.6275 33.1082 21.5297C29.3574 21.1339 25.5924 20.8921 21.8133 20.8043C19.9486 20.761 18.0842 20.7621 16.2193 20.787C14.5537 20.8093 12.7995 20.8088 11.2544 20.1557C10.0529 19.6478 8.96235 18.7237 8.62756 17.5095C8.24109 16.1078 8.95393 14.6804 9.97648 13.6652C10.5155 13.1302 11.1454 12.6798 11.7953 12.2657C12.5003 11.8164 13.2298 11.399 13.9752 11.0093C15.4433 10.2422 16.9781 9.58942 18.5637 9.05763C19.3459 8.79521 20.1397 8.56881 20.9404 8.35995C21.6166 8.18359 22.2948 8.00698 22.9482 7.76669C24.2115 7.30217 25.4129 6.51534 25.7341 5.22538C26.0385 4.00282 25.5253 2.67562 24.6255 1.7674C23.5845 0.716652 22.0148 0.256037 20.5099 0.181511C18.8205 0.0978426 17.17 0.487954 15.5821 0.983054C13.8884 1.51112 12.2313 2.1183 10.5019 2.54602C8.78697 2.96975 7.03884 3.26957 5.2734 3.44273C4.40916 3.52764 3.5188 3.62351 2.64942 3.55851C1.9208 3.50403 1.1959 3.30633 0.658917 2.82923C0.198482 2.42015 -0.0758033 1.85792 0.0184953 1.26461C0.0356232 1.15685 0.213055 1.20266 0.196032 1.30977C0.0812439 2.032 0.613347 2.69751 1.26905 3.03842C2.02686 3.43242 2.94901 3.43296 3.79272 3.3879C5.62211 3.28595 7.43912 3.04361 9.22492 2.66337C10.9797 2.29359 12.6717 1.76498 14.3619 1.20029C15.9671 0.66399 17.6082 0.140555 19.3231 0.0243938C20.8111 -0.0763986 22.3764 0.123609 23.6727 0.841071C24.812 1.47162 25.6497 2.52318 25.9167 3.72986C26.1775 4.909 25.8163 6.09584 24.8488 6.91869C23.8472 7.77065 22.4737 8.13489 21.1938 8.47036C19.5704 8.89584 17.9818 9.3932 16.4442 10.039C14.8856 10.6917 13.3908 11.4671 11.9764 12.3564C10.6111 13.2172 9.26376 14.3003 8.83196 15.836C8.63083 16.5513 8.66796 17.31 9.00451 17.9856C9.30376 18.5864 9.7966 19.0917 10.3707 19.4815C11.7406 20.4115 13.467 20.6025 15.1217 20.6215C16.9801 20.6428 18.8385 20.5849 20.6975 20.6131C24.4861 20.6705 28.2669 20.8832 32.04 21.2514C32.9854 21.3437 33.9297 21.4458 34.8727 21.5575C35.7209 21.6581 36.572 21.758 37.406 21.9366C38.8888 22.2542 40.3318 22.8647 41.2534 24.0247C41.6625 24.5275 41.9159 25.1234 41.9866 25.7487C42.0511 26.4012 41.878 27.0549 41.5582 27.6354C40.8505 28.9202 39.5248 29.7374 38.117 30.2743C37.3629 30.5618 36.5808 30.7797 35.8001 30.996C35.6864 31.0275 35.6378 30.8636 35.7512 30.8322L35.7512 30.8322Z" fill="#F2F2F2"/>
</svg>
