<svg width="2" height="3" viewBox="0 0 2 3" fill="none" xmlns="http://www.w3.org/2000/svg">
<path d="M1.62996 1.33893C1.6322 1.36098 1.63355 1.38349 1.63355 1.40554C1.63355 1.4276 1.6322 1.44966 1.62996 1.47171C1.62771 1.49377 1.62457 1.51583 1.62007 1.53744C1.61603 1.55904 1.61019 1.58065 1.60386 1.60136C1.59757 1.62252 1.58989 1.64323 1.5818 1.66393C1.57327 1.68419 1.56379 1.70401 1.55346 1.72337C1.54312 1.74273 1.53185 1.76209 1.51972 1.78006C1.50754 1.79852 1.49407 1.81653 1.4801 1.8336C1.46613 1.85072 1.4513 1.86734 1.43554 1.88266C1.42022 1.89843 1.4036 1.91325 1.38648 1.92767C1.36936 1.94119 1.35135 1.95467 1.33293 1.96684C1.31492 1.97902 1.29556 1.99025 1.2762 2.00058C1.25684 2.01091 1.23658 2.02039 1.21632 2.02892C1.19606 2.03746 1.17535 2.04469 1.15419 2.05143C1.13303 2.05772 1.11187 2.06316 1.09027 2.0672C1.06866 2.07169 1.0466 2.07529 1.02454 2.07708C1.00249 2.07933 0.980431 2.08068 0.958374 2.08068V0.73037C0.980431 0.73037 1.00249 0.731268 1.02454 0.733514C1.0466 0.735761 1.06866 0.739354 1.09027 0.743397C1.11187 0.747889 1.13303 0.75328 1.15419 0.759614C1.17535 0.765903 1.19606 0.773585 1.21632 0.78212C1.23658 0.790206 1.25684 0.800134 1.2762 0.810016C1.29556 0.820348 1.31492 0.832073 1.33293 0.844247C1.3514 0.85642 1.36941 0.869447 1.38648 0.883418C1.4036 0.897388 1.42022 0.912213 1.43554 0.92798C1.4513 0.943748 1.46613 0.96037 1.4801 0.977485C1.49407 0.994151 1.50754 1.01212 1.51972 1.03058C1.53189 1.04904 1.54312 1.06796 1.55346 1.08732C1.56379 1.10668 1.57327 1.12694 1.5818 1.1472C1.58989 1.16746 1.59757 1.18862 1.60386 1.20933C1.61015 1.23048 1.61603 1.25209 1.62007 1.2737C1.62457 1.29526 1.62771 1.31732 1.62996 1.33893Z" fill="#FFA81F"/>
</svg>
