<svg width="8" height="6" viewBox="0 0 8 6" fill="none" xmlns="http://www.w3.org/2000/svg">
<path d="M3.37526 0.914254C4.04985 0.942359 4.70654 1.11287 5.28895 1.41115C5.87136 1.70942 6.36208 2.12655 6.71899 2.62671C7.07589 3.12688 7.28831 3.69514 7.33802 4.28269C7.38772 4.87025 7.27321 5.45955 7.00433 6C7.39325 5.60154 7.67911 5.13461 7.84242 4.63104C8.00572 4.12746 8.04264 3.59909 7.95065 3.08194C7.85866 2.5648 7.63993 2.07103 7.30937 1.63432C6.9788 1.1976 6.54418 0.828196 6.03512 0.551292C5.52607 0.274388 4.95456 0.0964926 4.35955 0.0297363C3.76455 -0.03702 3.16003 0.00893222 2.58723 0.164458C2.01442 0.319984 1.4868 0.581428 1.04032 0.930966C0.593835 1.2805 0.238998 1.70992 0 2.18993C0.413066 1.76603 0.932224 1.43055 1.51743 1.20938C2.10263 0.988198 2.73825 0.887228 3.37526 0.914254V0.914254Z" fill="#3F3D56"/>
</svg>
