<svg width="7" height="9" viewBox="0 0 7 9" fill="none" xmlns="http://www.w3.org/2000/svg">
<path d="M0.991444 0.428345H6.66479C6.71571 0.428345 6.76454 0.448066 6.80054 0.483168C6.83654 0.518271 6.85677 0.56588 6.85677 0.615523V5.15137C6.85685 5.53915 6.77856 5.92314 6.62637 6.28141C6.47419 6.63968 6.25109 6.9652 5.96983 7.23937C5.68857 7.51355 5.35466 7.731 4.98718 7.87932C4.6197 8.02763 4.22584 8.10389 3.82812 8.10374V8.10374C3.02517 8.10374 2.25512 7.79275 1.68735 7.23917C1.11958 6.6856 0.800613 5.93479 0.800613 5.15192V0.615523C0.800612 0.566073 0.82068 0.518631 0.856435 0.48356C0.89219 0.44849 0.940727 0.42864 0.991444 0.428345V0.428345Z" fill="#FDB797"/>
</svg>
