<svg width="6" height="4" viewBox="0 0 6 4" fill="none" xmlns="http://www.w3.org/2000/svg">
<path d="M0.355742 2.39831C-0.00486026 2.03417 -0.0996105 1.33138 0.109609 0.811275C0.318829 0.291171 0.791851 -0.0221756 1.25297 0.00122509C1.71408 0.0246257 2.14859 0.359365 2.41573 0.835175C2.79099 1.50356 2.86974 2.43252 3.36873 2.95579C3.81942 3.42841 4.46505 3.41488 5.04982 3.37728C5.24694 3.3646 5.45043 3.34991 5.62731 3.23917C5.80419 3.12843 5.9487 2.89488 5.9259 2.64699C6.0728 2.94104 5.98758 3.35332 5.79048 3.59594C5.59339 3.83855 5.31275 3.9402 5.03955 3.98067C4.55756 4.04473 4.07069 3.94893 3.62689 3.70272C3.18308 3.45651 2.79765 3.06838 2.50856 2.57655C2.3051 2.22165 2.14808 1.80838 1.86889 1.54854C1.58969 1.28869 1.12418 1.27061 0.952783 1.65162C0.868013 1.84007 0.876333 2.07645 0.798379 2.26954C0.720425 2.46264 0.46728 2.56675 0.392216 2.37183" fill="#2F2E41"/>
</svg>
