<svg width="4" height="3" viewBox="0 0 4 3" fill="none" xmlns="http://www.w3.org/2000/svg">
<path d="M0 0.492825C0.0675316 0.334033 0.207341 0.198227 0.394848 0.109285C0.582355 0.0203422 0.805554 -0.0160428 1.02521 0.00652495C1.41437 0.0554498 1.72206 0.290689 1.90539 0.553427C2.08872 0.816165 2.17338 1.11022 2.29663 1.39209C2.41988 1.67395 2.59467 1.95735 2.90581 2.13981C3.21696 2.32227 3.69442 2.37176 4 2.18407C3.96509 2.37968 3.84929 2.56209 3.66896 2.70549C3.48864 2.8489 3.25293 2.94604 2.99517 2.98318C2.73741 3.02033 2.47064 2.99559 2.2326 2.91247C1.99456 2.82935 1.79729 2.69205 1.6687 2.52C1.50745 2.30427 1.46583 2.05142 1.41801 1.80657C1.3702 1.56172 1.30807 1.30838 1.11556 1.10766C0.923051 0.906949 0.562688 0.775857 0.256881 0.86728L0 0.492825Z" fill="#2F2E41"/>
</svg>
