<svg width="3" height="8" viewBox="0 0 3 8" fill="none" xmlns="http://www.w3.org/2000/svg">
<path d="M0 8L0.024599 7.92536C0.283924 7.13854 0.241902 5.85725 0.160996 4.92098C0.0932308 4.13676 0.0952672 2.75473 0.108907 1.73342C0.112277 1.38869 0.184315 1.05619 0.313164 0.790647C0.442012 0.525105 0.619993 0.342346 0.817812 0.272447C1.43183 0.0543688 2.18563 0.00816933 2.58032 5.58225e-06L2.58065 0.0459341L2.58032 5.58225e-06C2.68756 -0.00072514 2.79069 0.0703092 2.86759 0.197869C2.9445 0.325428 2.98904 0.49935 2.99167 0.682319C3.00368 1.78213 2.99995 3.78771 2.84003 4.86375C2.60269 6.4608 2.97382 7.54609 2.97761 7.55685L3 7.62072L0 8Z" fill="#1787E0"/>
</svg>
