<svg width="7" height="17" viewBox="0 0 7 17" fill="none" xmlns="http://www.w3.org/2000/svg">
<path d="M6.5 0C6.41117 0 6.32342 0.0151667 6.23892 0.0466667L0.551416 2.13033C0.221 2.2505 0 2.58417 0 2.95867V7.64633C0 13.3677 5.93017 16.149 6.18258 16.2645C6.28442 16.31 6.39167 16.3333 6.5 16.3333V11.0472C6.41117 11.0717 6.31908 11.0833 6.22808 11.0833C5.97892 11.0833 5.72867 10.9912 5.525 10.8022L3.62917 9.05217C3.17417 8.63333 3.12108 7.896 3.51217 7.40717C3.72667 7.13767 4.03 7 4.3355 7C4.58467 7 4.836 7.09217 5.03967 7.28L6.0775 8.23783L6.5 7.658V0Z" fill="#429846"/>
</svg>
