<svg width="3" height="3" viewBox="0 0 3 3" fill="none" xmlns="http://www.w3.org/2000/svg">
<path d="M0.66104 2.89236C0.65527 2.87489 0.653441 2.85629 0.65569 2.83797C0.65794 2.81966 0.66421 2.80212 0.674019 2.7867C0.683828 2.77128 0.696916 2.75839 0.712281 2.74902C0.727647 2.73964 0.74488 2.73404 0.762663 2.73262C0.799079 2.73467 0.834718 2.74434 0.867424 2.76104C0.90013 2.77774 0.929227 2.80113 0.952958 2.8298C1.00162 2.88787 1.05827 2.93822 1.12108 2.97923C1.18613 3.01317 1.27434 3.00833 1.31142 2.94363C1.34624 2.88288 1.32238 2.80151 1.3013 2.73094C1.24766 2.55139 1.21765 2.36517 1.21207 2.17731C1.206 1.96763 1.23458 1.7488 1.34673 1.58526C1.49146 1.3742 1.75027 1.29407 1.99519 1.29988C2.24011 1.30569 2.48106 1.38395 2.72367 1.43342C2.80742 1.4505 2.90587 1.45923 2.96189 1.39204C3.02145 1.32059 2.99958 1.20496 2.97424 1.10849C2.9085 0.858177 2.83875 0.599373 2.686 0.397209C2.52084 0.187143 2.28492 0.0496558 2.02575 0.0124383C1.77693 -0.0194657 1.52435 0.0102169 1.28877 0.0990455C0.904957 0.224267 0.567226 0.467806 0.320748 0.797091C0.0666665 1.14727 -0.0431243 1.58735 0.0153832 2.02109C0.0725422 2.39886 0.265932 2.74015 0.556568 2.97617L0.66104 2.89236Z" fill="#2F2E41"/>
</svg>
