<svg width="5" height="2" viewBox="0 0 5 2" fill="none" xmlns="http://www.w3.org/2000/svg">
<path d="M2.34221 2C2.26915 1.99996 2.19626 1.99553 2.1246 1.98679C1.95125 1.96647 1.78868 1.9202 1.65122 1.85206C1.51376 1.78391 1.40562 1.69599 1.33634 1.59604L0.0673308 0.643048C0.0405032 0.622899 0.0209748 0.599453 0.0100565 0.574278C-0.000861702 0.549104 -0.00291685 0.522783 0.00402429 0.497079C0.0109654 0.471375 0.0267443 0.446881 0.0503051 0.425238C0.073866 0.403595 0.104663 0.385303 0.140636 0.371587L1.04348 0.0273887C1.07681 0.0146776 1.1139 0.00615806 1.15261 0.00232229C1.19132 -0.00151348 1.23087 -0.000590574 1.269 0.00503924C1.30712 0.0106691 1.34306 0.0208939 1.37473 0.0351229C1.40641 0.0493518 1.43319 0.0673032 1.45354 0.0879416L2.34794 0.995461L4.06078 0.215834C4.19716 0.171796 4.35471 0.159445 4.50465 0.18104C4.65459 0.202634 4.78692 0.256731 4.87745 0.333448C4.96798 0.410165 5.01067 0.504382 4.99773 0.598884C4.98479 0.693387 4.91708 0.781867 4.80696 0.848162L3.09739 1.80862C2.8965 1.93126 2.62507 2.00005 2.34221 2Z" fill="#2F2E41"/>
</svg>
