<svg width="4" height="6" viewBox="0 0 4 6" fill="none" xmlns="http://www.w3.org/2000/svg">
<path d="M2.5317 5.97841C2.49154 5.96416 2.45502 5.94309 2.42424 5.91642C2.39346 5.88976 2.36903 5.85802 2.35237 5.82304L0.0688048 1.067C0.0239978 0.97388 0.000621402 0.873956 1.22221e-05 0.772936C-0.000596958 0.671916 0.0215719 0.57178 0.0652534 0.478254C0.108935 0.384727 0.173273 0.299642 0.254589 0.227861C0.335904 0.15608 0.432604 0.0990124 0.539162 0.0599161C0.64572 0.0208198 0.760047 0.000461722 0.875608 7.76388e-06C0.99117 -0.000446194 1.1057 0.0190115 1.21266 0.057269C1.31961 0.0955266 1.4169 0.151835 1.49895 0.222974C1.581 0.294113 1.6462 0.37869 1.69085 0.47187L3.97441 5.22797C4.00816 5.29849 4.00854 5.37783 3.97546 5.44859C3.94238 5.51935 3.87854 5.57575 3.79795 5.60541L2.78416 5.97735C2.74425 5.99212 2.70139 5.99981 2.65805 6C2.61471 6.00018 2.57177 5.99284 2.5317 5.97841L2.5317 5.97841Z" fill="#CCCCCC"/>
</svg>
