<svg width="2" height="3" viewBox="0 0 2 3" fill="none" xmlns="http://www.w3.org/2000/svg">
<path d="M1.6336 1.40553C1.6336 1.42759 1.63225 1.44965 1.63001 1.4717C1.62776 1.49376 1.62461 1.51582 1.62012 1.53742C1.61608 1.55903 1.61024 1.58064 1.6039 1.60135C1.59762 1.62251 1.58993 1.64321 1.58185 1.66392C1.57331 1.68418 1.56384 1.70399 1.5535 1.72335C1.54317 1.74272 1.5319 1.76208 1.51977 1.78005C1.50759 1.79851 1.49412 1.81652 1.48014 1.83359C1.46617 1.85071 1.45135 1.86733 1.43558 1.88265C1.42027 1.89841 1.40364 1.91324 1.38653 1.92766C1.36941 1.94118 1.3514 1.95466 1.33298 1.96683C1.31497 1.979 1.29561 1.99023 1.27625 2.00057C1.25688 2.0109 1.23662 2.02038 1.21636 2.02891C1.1961 2.03745 1.1754 2.04468 1.15424 2.05142C1.13308 2.05771 1.11192 2.06314 1.09031 2.06719C1.06871 2.07168 1.04665 2.07527 1.02459 2.07707C1.00254 2.07931 0.98048 2.08066 0.958423 2.08066C0.936367 2.08066 0.913861 2.07931 0.891804 2.07707C0.870197 2.07527 0.84814 2.07168 0.826533 2.06719C0.804925 2.06314 0.783319 2.05775 0.76216 2.05142C0.741002 2.04468 0.720292 2.03745 0.700032 2.02891C0.679773 2.02038 0.659514 2.0109 0.640153 2.00057C0.620791 1.99023 0.601879 1.97896 0.583416 1.96683C0.564953 1.95466 0.546939 1.94118 0.529869 1.92766C0.512754 1.91324 0.496583 1.89841 0.480815 1.88265C0.465047 1.86733 0.450223 1.85071 0.436252 1.83359C0.422282 1.81648 0.409254 1.79846 0.39708 1.78005C0.384906 1.76203 0.373227 1.74267 0.36285 1.72335C0.352473 1.70404 0.343039 1.68418 0.334953 1.66392C0.326418 1.64321 0.318736 1.62251 0.312447 1.60135C0.306158 1.58064 0.300723 1.55903 0.296231 1.53742C0.291739 1.51582 0.288594 1.49376 0.286348 1.4717C0.284102 1.44965 0.283203 1.42759 0.283203 1.40553C0.283203 1.38348 0.284102 1.36097 0.286348 1.33891C0.288594 1.31731 0.291739 1.29525 0.296231 1.27364C0.300723 1.25203 0.306113 1.23043 0.312447 1.20927C0.318736 1.18856 0.326418 1.1674 0.334953 1.14714C0.343039 1.12688 0.352518 1.10662 0.36285 1.08726C0.373182 1.0679 0.384906 1.04899 0.39708 1.03053C0.409254 1.01206 0.422282 0.994049 0.436252 0.977428C0.450223 0.960312 0.465047 0.943692 0.480815 0.927924C0.496583 0.912157 0.512754 0.897332 0.529869 0.883362C0.546984 0.869391 0.564998 0.856363 0.583416 0.844189C0.601879 0.832015 0.620791 0.820336 0.640153 0.809959C0.659514 0.800076 0.679773 0.790149 0.700032 0.782063C0.720292 0.773527 0.741002 0.765846 0.76216 0.759556C0.783319 0.753267 0.804925 0.747832 0.826533 0.74334C0.84814 0.739297 0.870197 0.735703 0.891804 0.733457C0.913861 0.731211 0.935918 0.730312 0.958423 0.730312C0.98048 0.730312 1.00254 0.731211 1.02459 0.733457C1.04665 0.735703 1.06871 0.739297 1.09031 0.74334C1.11192 0.747832 1.13308 0.753223 1.15424 0.759556C1.1754 0.765846 1.1961 0.773527 1.21636 0.782063C1.23662 0.790149 1.25688 0.800076 1.27625 0.809959C1.29561 0.820291 1.31497 0.832015 1.33298 0.844189C1.35144 0.856363 1.36946 0.869391 1.38653 0.883362C1.40364 0.897332 1.42027 0.912157 1.43558 0.927924C1.45135 0.943692 1.46617 0.960312 1.48014 0.977428C1.49412 0.994094 1.50759 1.01206 1.51977 1.03053C1.53194 1.04899 1.54317 1.0679 1.5535 1.08726C1.56384 1.10662 1.57331 1.12688 1.58185 1.14714C1.58993 1.1674 1.59762 1.18856 1.6039 1.20927C1.61019 1.23043 1.61608 1.25203 1.62012 1.27364C1.62461 1.29525 1.62776 1.31731 1.63001 1.33891C1.63225 1.36097 1.6336 1.38348 1.6336 1.40553Z" fill="#FFB64C"/>
</svg>
