<svg width="10" height="11" viewBox="0 0 10 11" fill="none" xmlns="http://www.w3.org/2000/svg">
<path d="M8.70295 2.08578C6.11559 1.83747 5.33154 0.446953 5.3054 0.372461C5.20086 0.148984 4.93951 0 4.67816 0C4.41681 0 4.15546 0.148984 4.02479 0.372461C3.99865 0.422122 3.24074 1.81264 0.62724 2.08578C0.26135 2.11061 0 2.40858 0 2.75621V5.43792C0 8.76524 4.15546 10.851 4.33841 10.9255C4.44295 10.9752 4.54749 11 4.65203 11C4.75657 11 4.86111 10.9752 4.96565 10.9255C5.14859 10.851 9.30406 8.76524 9.30406 5.43792V2.73138C9.35633 2.40858 9.06884 2.11061 8.70295 2.08578ZM7.05645 4.94131L4.59976 7.27539C4.46908 7.39955 4.28614 7.47404 4.10319 7.47404C3.92025 7.47404 3.7373 7.39955 3.60663 7.27539L2.32601 6.05869C2.03853 5.78555 2.03853 5.36343 2.32601 5.11512C2.6135 4.84199 3.05779 4.84199 3.31914 5.11512L4.10319 5.86005L6.06332 3.99774C6.3508 3.72461 6.7951 3.72461 7.05645 3.99774C7.3178 4.24605 7.3178 4.66817 7.05645 4.94131Z" fill="#1DD0A1"/>
</svg>
