<svg width="8" height="6" viewBox="0 0 8 6" fill="none" xmlns="http://www.w3.org/2000/svg">
<path d="M7.66471 4.37931L5.62795 3.11215L4.17412 2.20802L3.39758 1.72484L1.37492 0.466325L0.717686 0.0574817C0.595086 -0.0188207 0.459003 -0.0191713 0.336251 0.0565031C0.213498 0.132177 0.112978 0.278387 0.0544918 0.466325C0.0480046 0.487934 0.0414912 0.510408 0.0360631 0.533746C0.0109185 0.636359 -0.00129935 0.745864 0.000109315 0.856005C0.00151798 0.966145 0.0165239 1.07476 0.0442713 1.17566C0.0720187 1.27655 0.111963 1.36775 0.161824 1.44403C0.211684 1.52032 0.270486 1.5802 0.334867 1.62025L0.502949 1.72484L3.19912 3.40258L5.62794 4.91349L7.28187 5.94295C7.34269 5.98083 7.40744 6.00018 7.47274 6C7.59555 6.00034 7.71457 5.93223 7.80919 5.80744C7.90381 5.68265 7.96808 5.50905 7.99086 5.31669C8.01365 5.12434 7.99351 4.92534 7.93395 4.75415C7.87438 4.58296 7.77914 4.45036 7.66471 4.37931H7.66471Z" fill="white"/>
</svg>
