<svg width="2" height="2" viewBox="0 0 2 2" fill="none" xmlns="http://www.w3.org/2000/svg">
<path d="M0.776182 2C0.765027 2 0.753885 1.99935 0.742819 1.99807C0.694417 1.9927 0.648718 1.97479 0.611145 1.94646C0.573572 1.91813 0.545701 1.88056 0.530841 1.83822L0.00853721 0.378309C-0.00454949 0.341399 -0.00253677 0.301417 0.0142035 0.265755C0.0309438 0.230093 0.0612793 0.201162 0.0996024 0.184311L0.116549 0.177012C0.131917 0.170349 0.147137 0.163762 0.162674 0.157455C0.406231 0.054477 0.671342 0.000762857 0.939815 0C1.28834 0.000586575 1.62909 0.0939363 1.92025 0.268591C1.95928 0.292274 1.98655 0.328988 1.99619 0.370825C2.00582 0.412662 1.99704 0.456274 1.97174 0.492268L0.991955 1.89168C0.968983 1.92491 0.937136 1.95228 0.899397 1.97122C0.861659 1.99017 0.819264 2.00007 0.776182 2V2Z" fill="#E6E6E6"/>
</svg>
