<svg width="3" height="4" viewBox="0 0 3 4" fill="none" xmlns="http://www.w3.org/2000/svg">
<path d="M2.00262 3.94963L0.650186 2.98674C0.503879 2.94258 0.371679 2.86718 0.264933 2.76699C0.158187 2.66681 0.0800852 2.54483 0.03733 2.41155C-0.00542512 2.27826 -0.0115559 2.13764 0.0194644 2.00175C0.0504847 1.86586 0.11773 1.73878 0.215426 1.63139L1.4434 0.184915C1.52873 0.0911901 1.64874 0.0281983 1.7815 0.00745392C1.91425 -0.0132905 2.05087 0.009599 2.16639 0.0719377C2.28191 0.134276 2.36862 0.231899 2.41065 0.346963C2.45268 0.462027 2.44724 0.586845 2.39532 0.6986L1.42371 2.12712L2.85157 2.73583C2.88477 2.74998 2.91426 2.7703 2.93807 2.79546C2.96189 2.82061 2.97949 2.85002 2.98973 2.88175C2.99996 2.91347 3.00259 2.94678 2.99743 2.97949C2.99228 3.01219 2.97946 3.04354 2.95983 3.07146L2.38346 3.89131C2.36397 3.91898 2.33824 3.94266 2.30793 3.96083C2.27761 3.97899 2.24339 3.99123 2.20748 3.99675C2.20605 3.99698 2.20462 3.99718 2.20318 3.99737C2.1679 4.00216 2.13189 4.00039 2.0974 3.99218C2.0629 3.98397 2.03064 3.96949 2.00262 3.94963V3.94963Z" fill="#CCCCCC"/>
</svg>
