<svg width="3" height="4" viewBox="0 0 3 4" fill="none" xmlns="http://www.w3.org/2000/svg">
<path d="M1.23668 3.25168H1.67274C1.92438 3.25168 2.12926 3.07273 2.12926 2.85282V1.35416C2.12926 1.13425 1.9245 0.9552 1.67274 0.9552H1.23668C0.985034 0.9552 0.780273 1.13415 0.780273 1.35416V2.85282C0.780273 3.07273 0.985034 3.25168 1.23668 3.25168ZM1.10959 2.85282V1.35416C1.10959 1.29291 1.16658 1.2431 1.23668 1.2431H1.67274C1.74283 1.2431 1.79982 1.29291 1.79982 1.35416V2.85282C1.79982 2.91407 1.74283 2.96388 1.67274 2.96388H1.23668C1.1667 2.96388 1.10959 2.91407 1.10959 2.85282Z" fill="white"/>
</svg>
