<svg width="10" height="16" viewBox="0 0 10 16" fill="none" xmlns="http://www.w3.org/2000/svg">
<path d="M8.7945 0H0.8844C0.396825 0 0 0.371355 0 0.827613V15.1724C0 15.6286 0.396825 16 0.8844 16H8.7945C9.28208 16 9.6789 15.6286 9.6789 15.1724V0.827613C9.6789 0.371355 9.28235 0 8.7945 0ZM4.60488 0.674839H6.424C6.58708 0.674839 6.7188 0.798194 6.7188 0.95071C6.7188 1.10323 6.58708 1.22658 6.424 1.22658H4.60488C4.4418 1.22658 4.31008 1.10323 4.31008 0.95071C4.31008 0.798194 4.44208 0.674839 4.60488 0.674839ZM3.5629 0.665032C3.73257 0.665032 3.8709 0.793032 3.8709 0.95071C3.8709 1.10813 3.73285 1.23639 3.5629 1.23639C3.39322 1.23639 3.25518 1.10839 3.25518 0.95071C3.2549 0.793032 3.39295 0.665032 3.5629 0.665032ZM4.85595 15.4457C4.61533 15.4457 4.42007 15.2635 4.42007 15.0387C4.42007 14.8139 4.61505 14.6317 4.85595 14.6317C5.09685 14.6317 5.29183 14.8139 5.29183 15.0387C5.29183 15.2632 5.09685 15.4457 4.85595 15.4457ZM9.0002 13.8338C9.0002 13.9863 8.86847 14.1097 8.7054 14.1097H0.97405C0.810975 14.1097 0.67925 13.9863 0.67925 13.8338V2.16619C0.67925 2.01368 0.810975 1.89032 0.97405 1.89032H8.7054C8.86847 1.89032 9.0002 2.01368 9.0002 2.16619V13.8338Z" fill="black" fill-opacity="0.54"/>
</svg>
