<svg width="26" height="17" viewBox="0 0 26 17" fill="none" xmlns="http://www.w3.org/2000/svg">
<path d="M21.0643 17.0001H10.3588C8.86492 17.0001 7.56817 15.9104 7.20633 14.3494L4.7775 3.88438C4.65508 3.36405 4.22283 3.00005 3.7245 3.00005H1.08333C0.48425 3.00005 0 2.47738 0 1.83338C0 1.18938 0.48425 0.666718 1.08333 0.666718H3.7245C5.21842 0.666718 6.51517 1.75638 6.877 3.31738L7.07525 4.16672H23.8333C25.0283 4.16672 26 5.21322 26 6.50005C26 6.69022 25.9783 6.88155 25.935 7.06822L24.2136 14.3611C23.8485 15.9151 22.5518 17.0001 21.0643 17.0001" fill="#607D8B"/>
</svg>
