<svg width="3" height="7" viewBox="0 0 3 7" fill="none" xmlns="http://www.w3.org/2000/svg">
<path d="M3 2.95181L1.31844 0L0.863969 1.18072L2.00015 3.03614L0.510108 5.23195C0.499345 5.2306 0.488626 5.22892 0.477664 5.22892C0.385972 5.22875 0.296196 5.27761 0.219076 5.36965C0.141956 5.46169 0.0807585 5.593 0.0428035 5.7479C0.00484844 5.90279 -0.00825623 6.07469 0.00505757 6.24304C0.0183714 6.41139 0.0575397 6.56906 0.117877 6.69718C0.178213 6.8253 0.257163 6.91845 0.345282 6.96549C0.4334 7.01253 0.526957 7.01146 0.614756 6.96241C0.702556 6.91336 0.780882 6.81841 0.840364 6.68892C0.899845 6.55943 0.937963 6.40088 0.950158 6.23223L0.954864 6.24097L3 2.95181Z" fill="#FFB8B8"/>
</svg>
