<svg width="14" height="10" viewBox="0 0 14 10" fill="none" xmlns="http://www.w3.org/2000/svg">
<path d="M0.634996 6.51576C0.881631 5.77136 1.30789 5.09555 1.87798 4.54509C3.58514 2.8996 6.384 2.55262 7.81953 0.676376C8.16337 1.19712 7.89746 1.99779 7.30377 2.22129C8.67913 2.21235 10.2728 2.09501 11.0505 0.992064C11.2427 1.42829 11.3039 1.90873 11.2271 2.37756C11.1503 2.84638 10.9386 3.28433 10.6167 3.64049C11.8356 3.69636 13.1382 4.50095 13.2149 5.68827C13.2677 6.47944 12.7565 7.22815 12.0923 7.68185C11.4281 8.13554 10.619 8.34395 9.82526 8.51437C7.50778 9.01332 -0.877326 11.1013 0.634996 6.51576Z" fill="#333333"/>
</svg>
