<svg width="7" height="17" viewBox="0 0 7 17" fill="none" xmlns="http://www.w3.org/2000/svg">
<path d="M4.94 4.1508L5.55822 2.65547C5.70837 2.30468 5.7514 1.91349 5.68137 1.53586C5.61135 1.15823 5.43172 0.812787 5.16727 0.547204C5.11295 0.490678 5.05526 0.437863 4.99455 0.389083C4.68951 0.137862 4.31358 0.000941193 3.92629 0C3.66589 0.00106415 3.40877 0.0612605 3.17249 0.176479C3.15222 0.185955 3.13255 0.196022 3.11228 0.20609C3.07347 0.225633 3.03523 0.246952 2.99809 0.268864C2.75592 0.415251 2.54981 0.619506 2.39639 0.865156C2.24298 1.11081 2.14655 1.39097 2.11489 1.68306L1.84205 4.08981C1.77343 4.27872 -0.67476 11.101 0.181445 16.3095C0.190552 16.3651 0.216319 16.4162 0.25498 16.4553C0.293641 16.4944 0.34317 16.5195 0.396327 16.5268L1.26434 16.6512C1.32772 16.6603 1.39203 16.6438 1.44432 16.605C1.49661 16.5662 1.533 16.508 1.54616 16.4421L3.0026 9.13367C3.01167 9.08826 3.03495 9.04736 3.0687 9.01751C3.10245 8.98767 3.14473 8.9706 3.18879 8.96903C3.23284 8.96746 3.27612 8.98149 3.31171 9.00886C3.3473 9.03624 3.37315 9.07539 3.38512 9.12005L5.44291 16.8058C5.45757 16.8616 5.48922 16.9108 5.53302 16.9459C5.57681 16.981 5.63033 17 5.68537 17C5.70178 16.9999 5.71816 16.9983 5.73431 16.9953L6.79469 16.7803C6.85634 16.7682 6.91146 16.7322 6.94924 16.6795C6.98702 16.6268 7.00474 16.5612 6.99891 16.4954C6.84309 14.6661 6.01501 5.50282 4.94 4.1508Z" fill="#2F2E41"/>
</svg>
