<svg width="21" height="28" viewBox="0 0 21 28" fill="none" xmlns="http://www.w3.org/2000/svg">
<path d="M20.9123 19.3304C20.6962 21.3582 20.0264 23.3265 18.9212 24.5721C17.8334 25.7989 16.4398 26.2347 15.0944 26.6094C13.4809 27.0594 11.8629 27.4706 10.2405 27.8432C10.0105 27.8973 9.7804 27.9496 9.55007 28H0.100389C0.0908198 27.9812 0.0807314 27.9616 0.0711877 27.942C0.0557852 27.9091 0.0403784 27.8761 0.0254927 27.8432C0.0170123 27.8244 0.00850695 27.8048 0 27.7852H5.9273C6.0955 27.785 6.25677 27.6863 6.37575 27.5109C6.49473 27.3354 6.56171 27.0975 6.562 26.8493V15.1727C6.60023 14.9956 6.63581 14.8176 6.66823 14.6373C6.81938 13.7978 6.9177 12.9395 6.96193 12.0733C6.9938 11.4697 7.00337 10.8661 6.99644 10.2617C6.97681 8.60072 6.82969 6.93969 6.66981 5.29043C6.65814 5.16893 6.64592 5.04664 6.63423 4.92514C6.52162 3.77912 6.41913 2.53198 6.81055 1.52784C7.25829 0.378679 8.25202 -0.100269 9.14696 0.0173123C10.7568 0.229742 12.1127 2.04911 12.8175 4.19614C13.5218 6.34238 13.6795 8.78336 13.7438 11.1663C13.7778 12.4299 13.7741 13.75 13.6546 15.0175C14.0582 13.6551 14.4622 12.2928 14.8666 10.9304C15.0822 10.2037 15.309 9.45357 15.7084 8.92211C16.5433 7.80979 17.9242 8.03398 18.816 9.04674C19.7072 10.0603 20.1958 11.6617 20.5209 13.2507C20.9235 15.2158 21.129 17.3025 20.9123 19.3304Z" fill="#F2F2F2"/>
</svg>
