<svg width="8" height="7" viewBox="0 0 8 7" fill="none" xmlns="http://www.w3.org/2000/svg">
<path fill-rule="evenodd" clip-rule="evenodd" d="M1.33337 2.33334C1.14928 2.33334 1.00004 2.46393 1.00004 2.62501V5.54168C1.00004 5.70276 1.14928 5.83334 1.33337 5.83334H6.66671C6.8508 5.83334 7.00004 5.70276 7.00004 5.54168V2.62501C7.00004 2.46393 6.8508 2.33334 6.66671 2.33334H1.33337ZM0.333374 2.62501C0.333374 2.14176 0.781089 1.75001 1.33337 1.75001H6.66671C7.21899 1.75001 7.66671 2.14176 7.66671 2.62501V5.54168C7.66671 6.02493 7.21899 6.41668 6.66671 6.41668H1.33337C0.781089 6.41668 0.333374 6.02493 0.333374 5.54168V2.62501Z" fill="#7B8794"/>
<path fill-rule="evenodd" clip-rule="evenodd" d="M2.62627 0.839625C2.8138 0.675531 3.06816 0.583344 3.33337 0.583344H4.66671C4.93192 0.583344 5.18628 0.675531 5.37381 0.839625C5.56135 1.00372 5.66671 1.22628 5.66671 1.45834V6.12501C5.66671 6.28609 5.51747 6.41668 5.33337 6.41668C5.14928 6.41668 5.00004 6.28609 5.00004 6.12501V1.45834C5.00004 1.38099 4.96492 1.3068 4.90241 1.2521C4.8399 1.19741 4.75511 1.16668 4.66671 1.16668H3.33337C3.24497 1.16668 3.16018 1.19741 3.09767 1.2521C3.03516 1.3068 3.00004 1.38099 3.00004 1.45834V6.12501C3.00004 6.28609 2.8508 6.41668 2.66671 6.41668C2.48261 6.41668 2.33337 6.28609 2.33337 6.12501V1.45834C2.33337 1.22628 2.43873 1.00372 2.62627 0.839625Z" fill="#7B8794"/>
</svg>
