<svg width="5" height="9" viewBox="0 0 5 9" fill="none" xmlns="http://www.w3.org/2000/svg">
<path d="M0.00281762 2.40241L0.179566 5.99969L0.243461 7.30843C0.246007 7.36541 0.266513 7.42037 0.302356 7.46629C0.3382 7.51221 0.387751 7.547 0.44467 7.56621L4.58993 8.98267C4.62342 8.99442 4.6589 9.00029 4.69462 8.99999C4.73545 9.00017 4.7759 8.9926 4.81356 8.97771C4.85121 8.96282 4.88531 8.94093 4.9138 8.91334C4.94228 8.88575 4.96459 8.85303 4.97937 8.81712C4.99416 8.78122 5.00112 8.74288 4.99985 8.70438L4.82991 2.23633C4.81875 1.70566 4.61166 1.1953 4.24435 0.793213C3.87704 0.391131 3.37252 0.122531 2.81777 0.0337178C2.77768 0.0279484 2.73688 0.0221766 2.69609 0.0170456C2.3521 -0.0232331 2.00293 0.00807908 1.67315 0.108781C1.34337 0.209483 1.04099 0.377129 0.787278 0.599922C0.524568 0.827847 0.318139 1.10742 0.182586 1.41889C0.0470326 1.73035 -0.0143362 2.0661 0.00281562 2.40241L0.00281762 2.40241Z" fill="#CCCCCC"/>
</svg>
