<svg width="2" height="3" viewBox="0 0 2 3" fill="none" xmlns="http://www.w3.org/2000/svg">
<path d="M0.00390063 0.507703C-0.00590237 0.590046 0.00282662 0.673495 0.0294723 0.752171C0.056118 0.830848 0.10003 0.90284 0.15812 0.963074C0.21621 1.02331 0.287064 1.07032 0.365688 1.1008C0.444312 1.13128 0.528795 1.14449 0.613187 1.13949L1.40275 3L2 2.13188L1.15865 0.498198C1.14069 0.359739 1.07156 0.23255 0.964349 0.140732C0.857141 0.0489146 0.719311 -0.0011513 0.576973 2.00997e-05C0.434634 0.0011915 0.297678 0.0535186 0.192057 0.147088C0.0864359 0.240657 0.0194857 0.368966 0.00389712 0.507701L0.00390063 0.507703Z" fill="#A0616A"/>
</svg>
