<svg width="4" height="4" viewBox="0 0 4 4" fill="none" xmlns="http://www.w3.org/2000/svg">
<path d="M1.34685 4C1.34401 4 1.34115 4 1.33831 3.99995C1.28731 3.99915 1.23714 3.99149 1.19105 3.97747C1.14496 3.96345 1.10398 3.94337 1.07075 3.91854L0.0875632 3.18275C0.054076 3.15769 0.0292571 3.12835 0.0147508 3.09669C0.000244518 3.06502 -0.0036191 3.03174 0.00341119 2.99904C0.0104415 2.96635 0.0282087 2.93498 0.055537 2.90702C0.0828652 2.87905 0.119133 2.85512 0.161944 2.83682L2.00298 2.04948L0.335131 0.763177C0.238108 0.659418 0.202516 0.53673 0.23486 0.417528C0.267204 0.298326 0.365324 0.190568 0.511292 0.113941C0.65726 0.0373148 0.841332 -0.00306411 1.02988 0.000181482C1.21842 0.00342708 1.39885 0.0500813 1.53821 0.131619L3.56527 1.40238C3.72481 1.49587 3.8466 1.61281 3.92018 1.74314C3.99377 1.87347 4.01695 2.01331 3.98774 2.15066C3.95854 2.288 3.87781 2.41875 3.75249 2.53168C3.62717 2.64461 3.46101 2.73634 3.26826 2.799L1.6115 3.92674C1.57748 3.94986 1.53646 3.96828 1.49095 3.98088C1.44544 3.99348 1.39641 3.99998 1.34685 4Z" fill="#2F2E41"/>
</svg>
