<svg width="5" height="4" viewBox="0 0 5 4" fill="none" xmlns="http://www.w3.org/2000/svg">
<path d="M4.71945 2.62905L4.34798 2.39608L0.602529 0.0480244C0.493309 -0.0198809 0.371805 -0.015628 0.26453 0.0598552C0.157254 0.135338 0.0729172 0.275923 0.0299206 0.450934C-0.0124069 0.626491 -0.00973382 0.821835 0.0373589 0.994231C0.0844516 1.16663 0.172131 1.30204 0.28121 1.37085L1.51828 2.14635L3.04835 3.10536L4.34798 3.92075L4.39813 3.95187C4.50726 4.01994 4.62875 4.01566 4.73593 3.93996C4.8431 3.86426 4.9272 3.72334 4.96976 3.54812C5.01232 3.3729 5.00987 3.17771 4.96294 3.0054C4.91601 2.83308 4.82844 2.69773 4.71945 2.62905V2.62905Z" fill="white"/>
</svg>
