<svg width="16" height="20" viewBox="0 0 16 20" fill="none" xmlns="http://www.w3.org/2000/svg">
<path d="M9.74571 4.38324L9.50577 4.24362H5.75371C5.74874 4.28977 5.74684 4.33654 5.74803 4.38324H5.23507L5.24128 4.3979H9.77053L9.74571 4.38324ZM9.74571 4.38324H5.23507L5.24128 4.3979H9.77053L9.74571 4.38324ZM9.74571 4.38324H5.23507L5.24128 4.3979H9.77053L9.74571 4.38324ZM9.77053 4.3979L9.74571 4.38324H5.23507L5.24128 4.3979H9.77053ZM0.72083 19.8457C0.557159 19.8453 0.400264 19.7482 0.284531 19.5755C0.168798 19.4029 0.103669 19.1688 0.103419 18.9246V1.07614C0.103561 0.831849 0.168638 0.597611 0.284379 0.424798C0.400121 0.251984 0.557078 0.154702 0.72083 0.154285H1.68314V0H0.72083C0.529674 0.000535399 0.346458 0.114112 0.211339 0.315833C0.0762203 0.517555 0.000220983 0.790966 0 1.07614V18.9246C0.000163249 19.1309 0.0400723 19.3328 0.114972 19.5062C0.189872 19.6797 0.296607 19.8173 0.422464 19.9028H9.53266C9.5244 19.8843 9.51612 19.865 9.50784 19.8457H0.72083ZM15.8014 4.57996C15.7343 4.47366 15.6532 4.38898 15.5633 4.33114C15.4734 4.27329 15.3765 4.24351 15.2786 4.24362H5.29868L4.74022 2.91831L4.72676 2.8859L4.25312 1.76194L3.72257 0.502971C3.65754 0.349178 3.5675 0.222416 3.46082 0.134477C3.35414 0.046538 3.23428 0.000277639 3.1124 0H0.72083C0.529674 0.000535399 0.346458 0.114112 0.211339 0.315833C0.0762203 0.517555 0.000220983 0.790966 0 1.07614V18.9246C0.000163249 19.1309 0.0400723 19.3328 0.114972 19.5062C0.189872 19.6797 0.296607 19.8173 0.422464 19.9028C0.516025 19.9671 0.617829 20.0002 0.72083 20H15.2786C15.3818 20.0002 15.4838 19.9671 15.5775 19.9028C15.7034 19.8173 15.8101 19.6797 15.885 19.5062C15.9599 19.3328 15.9998 19.1309 16 18.9246V5.31976C16.0001 5.04421 15.929 4.77921 15.8014 4.57996V4.57996ZM15.8966 18.9246C15.8963 19.1689 15.8311 19.4031 15.7152 19.5757C15.5994 19.7484 15.4424 19.8455 15.2786 19.8457H0.72083C0.557159 19.8453 0.400262 19.7482 0.284529 19.5755C0.168797 19.4029 0.103669 19.1688 0.103419 18.9246V1.07614C0.103561 0.831849 0.168638 0.597611 0.284379 0.424798C0.400121 0.251984 0.557078 0.154702 0.72083 0.154285H3.1124C3.21694 0.153861 3.31981 0.193245 3.4113 0.268707C3.50278 0.344168 3.57984 0.45321 3.63518 0.585512L4.13056 1.76194L4.60423 2.8859L4.69316 3.09727L5.23507 4.38324L5.24129 4.3979H15.2786C15.4425 4.39811 15.5996 4.4953 15.7154 4.66813C15.8313 4.84097 15.8964 5.07532 15.8966 5.31975V18.9246ZM9.74571 4.38324H5.23507L5.24128 4.3979H9.77053L9.74571 4.38324ZM9.74571 4.38324H5.23507L5.24128 4.3979H9.77053L9.74571 4.38324ZM9.74571 4.38324H5.23507L5.24128 4.3979H9.77053L9.74571 4.38324ZM9.74571 4.38324L9.50577 4.24362H5.29868L4.74022 2.91831L4.69316 3.09728L5.23507 4.38324L5.24129 4.3979H9.77053L9.74571 4.38324Z" fill="#3F3D56"/>
</svg>
