<svg width="13" height="11" viewBox="0 0 13 11" fill="none" xmlns="http://www.w3.org/2000/svg">
<path d="M12.529 4.79561L11.7752 4.39956L8.01688 2.42724L3.52033 0.0675585C3.33731 -0.027953 3.13359 -0.0219858 2.95383 0.0841506C2.77407 0.190287 2.63293 0.387933 2.56136 0.633767L2.40414 1.17608L2.02994 2.46417L1.48611 4.33874L1.07796 5.74484L0.772119 6.79906L0.363975 8.20444L0.0576039 9.25938L0.0490067 9.28979L0 9.45777L0.564289 10.6648L0.570756 10.6785H11.0225C11.1184 10.6784 11.2132 10.7072 11.2997 10.7629C11.3863 10.8185 11.4625 10.8995 11.5227 11L11.5668 10.8494L12.1063 8.99148L12.9495 6.08587C13.0207 5.83975 13.0164 5.56572 12.9376 5.32386C12.8588 5.08199 12.7118 4.89203 12.529 4.79561V4.79561Z" fill="#1787E0"/>
</svg>
