<svg width="5" height="5" viewBox="0 0 5 5" fill="none" xmlns="http://www.w3.org/2000/svg">
<path d="M0.0320983 3.34681L1.84045 0.140883C1.87532 0.0792281 1.93519 0.0328984 2.00691 0.0120583C2.07863 -0.00878179 2.15635 -0.00242899 2.22302 0.0297206L4.84784 1.29898C4.91443 1.33127 4.96447 1.38669 4.98698 1.4531C5.00948 1.5195 5.00262 1.59146 4.9679 1.65319L3.15955 4.85911C3.12467 4.92077 3.06481 4.9671 2.99309 4.98794C2.92137 5.00878 2.84365 5.00243 2.77698 4.97028L0.15216 3.70102C0.0855703 3.66873 0.0355322 3.61331 0.0130241 3.5469C-0.0094841 3.4805 -0.00262459 3.40854 0.0320983 3.34681Z" fill="#3F3D56"/>
</svg>
