<svg width="7" height="2" viewBox="0 0 7 2" fill="none" xmlns="http://www.w3.org/2000/svg">
<path d="M6.95277 0.556464L6.66092 0.3014C6.59599 0.245969 6.49132 0.245969 6.428 0.3014C6.39709 0.329718 6.3794 0.365869 6.3794 0.403225C6.3794 0.441886 6.39709 0.477936 6.428 0.50505L6.43835 0.515392H3.86861H2.54169H0.56177L0.572111 0.50505C0.60302 0.478037 0.620716 0.441886 0.620716 0.403225C0.620716 0.365869 0.60302 0.329819 0.572111 0.3014C0.508684 0.245969 0.404005 0.245969 0.339199 0.3014L0.0473408 0.556464C0.0162016 0.583476 0 0.620832 0 0.658188C0 0.696849 0.0162016 0.7329 0.0486047 0.760013L0.339084 1.01508C0.370108 1.04219 0.412853 1.05765 0.455598 1.05765C0.499836 1.05765 0.541087 1.04219 0.572111 1.01518C0.60302 0.988164 0.620716 0.952014 0.620716 0.913352C0.620716 0.874691 0.60302 0.838641 0.572111 0.811528L0.56177 0.80249H2.54169H3.8685H6.43823L6.42789 0.811528C6.39698 0.83854 6.37928 0.874691 6.37928 0.913352C6.37928 0.952014 6.39698 0.988064 6.42789 1.01518C6.45891 1.04219 6.50016 1.05765 6.5444 1.05765C6.58715 1.05765 6.62989 1.04219 6.66092 1.01518L6.9514 0.760113C6.9838 0.7331 7 0.69695 7 0.658288C7 0.620832 6.9838 0.583476 6.95277 0.556464Z" fill="white"/>
</svg>
