<svg width="16" height="22" viewBox="0 0 16 22" fill="none" xmlns="http://www.w3.org/2000/svg">
<path d="M7.9422 0.000197438C3.60972 0.0291405 0.0623449 3.35889 0.000801151 7.45605C0.000231056 7.49388 -3.13705e-05 7.75986 2.9798e-06 8.10774C3.14227e-05 8.61782 0.214284 9.10699 0.595635 9.46768C0.976987 9.82837 1.49421 10.031 2.03353 10.0311H2.03354C2.30089 10.031 2.56561 9.98116 2.81258 9.88431C3.05954 9.78746 3.2839 9.64553 3.47285 9.46664C3.66179 9.28775 3.81162 9.0754 3.91375 8.84173C4.01589 8.60806 4.06834 8.35764 4.06811 8.10479C4.0679 7.86815 4.06778 7.70436 4.06778 7.6943C4.06764 7.06109 4.24179 6.43875 4.5731 5.8885C4.90441 5.33826 5.38148 4.87905 5.95736 4.55607C6.53323 4.23308 7.18809 4.05743 7.85752 4.04641C8.52695 4.03538 9.18788 4.18935 9.7753 4.49318C10.3627 4.79701 10.8564 5.24022 11.2078 5.77923C11.5591 6.31823 11.7561 6.93446 11.7793 7.56729C11.8024 8.20012 11.651 8.82775 11.3399 9.38846C11.0288 9.94916 10.5688 10.4236 10.005 10.7651L10.0057 10.766C10.0057 10.766 7.11132 12.5282 6.2289 14.9457L6.22965 14.9459C6.07449 15.4411 5.99586 15.955 5.99622 16.4715C5.99622 16.6838 6.00943 18.5416 6.03495 20.0495C6.04387 20.5698 6.2687 21.0659 6.66093 21.4308C7.05315 21.7957 7.58134 22.0001 8.13152 22H8.13153C8.40799 22 8.68171 21.9483 8.93695 21.8478C9.1922 21.7474 9.42392 21.6002 9.6188 21.4148C9.81367 21.2293 9.96785 21.0093 10.0725 20.7672C10.1771 20.5252 10.23 20.266 10.2283 20.0046C10.2195 18.6236 10.2147 17.0157 10.2147 16.899C10.2147 15.4145 11.7288 13.9355 12.9726 12.971C14.4048 11.8604 15.4354 10.3468 15.8494 8.63947C15.941 8.28796 15.9915 7.928 16 7.56606C16 6.56787 15.7912 5.57955 15.3855 4.65804C14.9798 3.73652 14.3854 2.90003 13.6364 2.19676C12.8874 1.49349 11.9986 0.937336 11.0214 0.560348C10.0441 0.18336 8.99761 -0.00701343 7.9422 0.000197438V0.000197438Z" fill="#1787E0"/>
</svg>
