<svg width="7" height="3" viewBox="0 0 7 3" fill="none" xmlns="http://www.w3.org/2000/svg">
<path d="M6.84041 2.92408L6.69848 2.85675L5.31044 2.19784L4.04251 1.59623L1.84354 0.552715L0.779972 0.0477887C0.709998 0.0144951 0.635312 -0.00169669 0.560189 0.000140539C0.485065 0.00197777 0.41098 0.0218085 0.342163 0.0584964C0.273347 0.0951843 0.211149 0.14801 0.159133 0.213954C0.107117 0.279898 0.0663024 0.357666 0.039019 0.442809C0.0117357 0.527953 -0.00147866 0.618801 0.000131248 0.710161C0.00174116 0.801521 0.0181427 0.8916 0.0484004 0.975245C0.0786581 1.05889 0.122177 1.13446 0.176469 1.19763C0.23076 1.2608 0.294759 1.31034 0.364804 1.34341L0.897174 1.59623L3.55312 2.85676L3.82638 2.98639L3.85465 3H7L6.84041 2.92408Z" fill="white"/>
</svg>
