<svg width="5" height="28" viewBox="0 0 5 28" fill="none" xmlns="http://www.w3.org/2000/svg">
<path d="M2.68074 0.176356C3.33885 1.93202 3.8517 3.79381 4.2087 5.7232C4.92333 9.58748 5.03094 13.6343 4.52361 17.5667C4.27037 19.5314 3.85734 21.4458 3.29312 23.2699C2.73053 25.0787 1.92057 26.9846 0.537057 27.6179C0.380916 27.689 0.220877 27.7408 0.058668 27.7727C-0.0441492 27.7931 -0.000381001 28.019 0.101729 27.9987C1.53288 27.7144 2.52732 25.9937 3.15099 24.2397C3.7963 22.4248 4.2558 20.454 4.56138 18.4642C5.16699 14.4939 5.14521 10.377 4.49766 6.4206C4.17598 4.44966 3.69518 2.54033 3.06518 0.73199C2.98605 0.505529 2.90453 0.280878 2.82061 0.0580363C2.77078 -0.0745391 2.63087 0.0436579 2.68074 0.176358V0.176356Z" fill="white"/>
</svg>
