<svg width="7" height="9" viewBox="0 0 7 9" fill="none" xmlns="http://www.w3.org/2000/svg">
<path d="M0.991444 0.42835H6.66479C6.71571 0.42835 6.76454 0.448071 6.80054 0.483174C6.83654 0.518277 6.85677 0.565886 6.85677 0.615528V5.15137C6.85685 5.53915 6.77856 5.92315 6.62637 6.28141C6.47419 6.63968 6.25109 6.9652 5.96983 7.23938C5.68857 7.51355 5.35466 7.73101 4.98718 7.87932C4.6197 8.02763 4.22584 8.1039 3.82812 8.10375V8.10375C3.02517 8.10375 2.25512 7.79275 1.68735 7.23918C1.11958 6.68561 0.800613 5.9348 0.800613 5.15193V0.615528C0.800612 0.566079 0.82068 0.518637 0.856435 0.483566C0.89219 0.448496 0.940727 0.428646 0.991444 0.42835V0.42835Z" fill="#FDB797"/>
</svg>
