<svg width="9" height="18" viewBox="0 0 9 18" fill="none" xmlns="http://www.w3.org/2000/svg">
<path d="M8.05294 0.179996C8.60333 1.76299 8.85584 3.57817 8.8498 5.38958C8.84128 7.18553 8.59663 8.9578 8.13222 10.5878C7.71215 12.0596 7.12691 13.3914 6.40645 14.515C5.69541 15.6361 4.8517 16.5114 3.92638 17.0877C2.85265 17.7412 1.69139 17.9204 0.56109 17.607C0.404066 17.5632 0.248202 17.5101 0.0934993 17.4477C-0.000353627 17.4101 -0.0403959 17.6453 0.0535656 17.6829C1.22974 18.1563 2.46322 18.0987 3.62069 17.5163C4.58475 17.0126 5.47429 16.1908 6.23351 15.1025C7.00217 14.0111 7.63782 12.6951 8.10745 11.2229C8.62132 9.61104 8.92112 7.84196 8.98745 6.03009C9.05306 4.19151 8.86325 2.32016 8.37363 0.652336C8.3143 0.450235 8.25064 0.251751 8.18264 0.0568803C8.17224 0.030124 8.15584 0.010977 8.1369 0.00347747C8.11797 -0.00402205 8.09799 0.000711492 8.08116 0.0166811C8.06434 0.0326508 8.05199 0.0586081 8.04673 0.0890768C8.04146 0.119545 8.04369 0.152143 8.05294 0.179996H8.05294Z" fill="white"/>
</svg>
