<svg width="4" height="7" viewBox="0 0 4 7" fill="none" xmlns="http://www.w3.org/2000/svg">
<path d="M2.64188 6.07506C2.10138 6.075 1.58304 5.86945 1.20087 5.50361C0.81869 5.13777 0.603972 4.64161 0.60394 4.12425C0.603911 3.7714 0.604176 3.50162 0.604736 3.46325C0.621909 2.25467 0.939895 1.06742 1.53232 0C0.558984 1.27543 0.023798 2.80887 0.000798434 4.38819C0.00023798 4.42656 -2.73661e-05 4.69634 2.22691e-06 5.04919C3.42546e-05 5.56655 0.214752 6.06271 0.596929 6.42855C0.979106 6.79439 1.49744 6.99994 2.03794 7V7C2.48208 6.99984 2.91402 6.86092 3.26815 6.60434C3.62228 6.34777 3.87925 5.98756 4 5.57845C3.62684 5.89876 3.1431 6.07564 2.64188 6.07506V6.07506Z" fill="#3F3D56"/>
</svg>
