<svg width="3" height="6" viewBox="0 0 3 6" fill="none" xmlns="http://www.w3.org/2000/svg">
<path d="M1.32725 5.25984H1.76332C2.01496 5.25984 2.21983 5.08089 2.21983 4.86098V0.398964C2.21983 0.178946 2.01496 0 1.76332 0H1.32725C1.07561 0 0.87085 0.178946 0.87085 0.398964V4.86098C0.87085 5.08089 1.07561 5.25984 1.32725 5.25984ZM1.20017 4.86098V0.398964C1.20017 0.337709 1.25716 0.287901 1.32725 0.287901H1.76332C1.83341 0.287901 1.8904 0.337709 1.8904 0.398964V4.86098C1.8904 4.92223 1.83341 4.97204 1.76332 4.97204H1.32725C1.25716 4.97204 1.20017 4.92223 1.20017 4.86098Z" fill="white"/>
</svg>
