<svg width="6" height="5" viewBox="0 0 6 5" fill="none" xmlns="http://www.w3.org/2000/svg">
<path d="M2.64804 4.29899C2.16663 4.12784 1.74053 3.86771 1.40338 3.53912C1.06622 3.21053 0.82724 2.82248 0.705285 2.40559C0.583331 1.9887 0.581745 1.55438 0.700649 1.13691C0.819554 0.719431 1.0557 0.330223 1.39044 0C1.00233 0.231305 0.678926 0.527347 0.441697 0.868472C0.204467 1.2096 0.0588398 1.58801 0.0144734 1.97859C-0.029893 2.36916 0.0280193 2.76298 0.184367 3.13389C0.340715 3.5048 0.59192 3.84433 0.921314 4.12994C1.25071 4.41555 1.65076 4.6407 2.0949 4.79046C2.53905 4.94022 3.01715 5.01116 3.49745 4.99858C3.97775 4.98599 4.44928 4.89016 4.88075 4.71744C5.31221 4.54473 5.69373 4.29909 6 3.99682C5.52231 4.28181 4.96148 4.45967 4.37338 4.51268C3.78527 4.5657 3.19041 4.49202 2.64804 4.29899V4.29899Z" fill="#3F3D56"/>
</svg>
