<svg width="3" height="5" viewBox="0 0 3 5" fill="none" xmlns="http://www.w3.org/2000/svg">
<path d="M1.28172 4.25169H1.71778C1.96942 4.25169 2.1743 4.07275 2.1743 3.85283V0.936867C2.1743 0.71695 1.96954 0.537903 1.71778 0.537903H1.28172C1.03008 0.537903 0.825317 0.716849 0.825317 0.936867V3.85283C0.825317 4.07275 1.03008 4.25169 1.28172 4.25169ZM1.15463 3.85283V0.936867C1.15463 0.875611 1.21163 0.825804 1.28172 0.825804H1.71778C1.78788 0.825804 1.84487 0.875611 1.84487 0.936867V3.85283C1.84487 3.91409 1.78788 3.96389 1.71778 3.96389H1.28172C1.21163 3.96389 1.15463 3.91409 1.15463 3.85283Z" fill="white"/>
</svg>
