<svg width="14" height="14" viewBox="0 0 14 14" fill="none" xmlns="http://www.w3.org/2000/svg">
<path d="M12.44 3.56C10.52 0.6 6.60001 -0.28 3.56001 1.56C0.600007 3.4 -0.359993 7.4 1.56001 10.36L1.72001 10.6L1.08001 13L3.48001 12.36L3.72001 12.52C4.76001 13.08 5.88001 13.4 7.00001 13.4C8.20001 13.4 9.40001 13.08 10.44 12.44C13.4 10.52 14.28 6.6 12.44 3.56V3.56ZM10.76 9.72C10.44 10.2 10.04 10.52 9.48001 10.6C9.16001 10.6 8.76001 10.76 7.16001 10.12C5.80001 9.48 4.68001 8.44 3.88001 7.24C3.40001 6.68 3.16001 5.96 3.08001 5.24C3.08001 4.6 3.32001 4.04 3.72001 3.64C3.88001 3.48 4.04001 3.4 4.20001 3.4H4.60001C4.76001 3.4 4.92001 3.4 5.00001 3.72C5.16001 4.12 5.56001 5.08 5.56001 5.16C5.64001 5.24 5.64001 5.4 5.56001 5.48C5.64001 5.64 5.56001 5.8 5.48001 5.88C5.40001 5.96 5.32001 6.12 5.24001 6.2C5.08001 6.28 5.00001 6.44 5.08001 6.6C5.40001 7.08 5.80001 7.56 6.20001 7.96C6.68001 8.36 7.16001 8.68 7.72001 8.92C7.88001 9 8.04001 9 8.12001 8.84C8.20001 8.68 8.60001 8.28 8.76001 8.12C8.92001 7.96 9.00001 7.96 9.16001 8.04L10.44 8.68C10.6 8.76 10.76 8.84 10.84 8.92C10.92 9.16 10.92 9.48 10.76 9.72V9.72Z" fill="#3AA852"/>
</svg>
