<svg width="165" height="105" viewBox="0 0 165 105" fill="none" xmlns="http://www.w3.org/2000/svg">
<path d="M67.539 72.1411C67.539 90.2886 52.4198 105 33.7695 105C15.1191 105 0 90.2886 0 72.1411C0 62.5731 4.20277 53.9603 10.91 47.9551C16.9243 42.5703 24.9522 39.2822 33.7695 39.2822C52.4198 39.2822 67.539 53.9937 67.539 72.1411Z" fill="#F2994A"/>
<path d="M67.539 72.1411C67.539 90.2886 52.4198 105 33.7695 105H131.231C112.58 105 97.4611 90.2886 97.4611 72.1411C97.4611 69.823 97.7078 67.561 98.177 65.3785C96.5866 65.6021 94.9604 65.7178 93.3064 65.7178C76.9152 65.7178 63.2516 54.3545 60.1819 39.2822H38.1538H33.7695C52.4198 39.2822 67.539 53.9937 67.539 72.1411Z" fill="#F2994A"/>
<path d="M60.1819 39.2822C59.7588 37.2049 59.537 35.0571 59.537 32.8589C59.537 29.9719 59.9196 27.1718 60.6382 24.5041C57.8163 29.4302 49.3688 39.2822 38.1538 39.2822H60.1819Z" fill="#F2994A"/>
<path fill-rule="evenodd" clip-rule="evenodd" d="M131.231 105C149.881 105 165 90.2886 165 72.1411C165 53.9937 149.881 39.2822 131.231 39.2822C129.577 39.2822 127.95 39.3979 126.36 39.6215C123.482 53.0095 112.229 63.4034 98.177 65.3785C97.7078 67.561 97.4611 69.823 97.4611 72.1411C97.4611 90.2886 112.58 105 131.231 105Z" fill="#F2994A"/>
<path d="M126.36 39.6215C123.482 53.0095 112.229 63.4034 98.177 65.3785C101.055 51.9905 112.308 41.5966 126.36 39.6215Z" fill="#F2994A"/>
<path d="M127.076 32.8589C127.076 14.7114 111.957 0 93.3064 0C77.6231 0 64.4368 10.403 60.6382 24.5041C59.9196 27.1718 59.537 29.9719 59.537 32.8589C59.537 35.0571 59.7588 37.2049 60.1819 39.2822C63.2516 54.3545 76.9152 65.7178 93.3064 65.7178C94.9604 65.7178 96.5866 65.6021 98.177 65.3785C101.055 51.9905 112.308 41.5966 126.36 39.6215C126.829 37.439 127.076 35.177 127.076 32.8589Z" fill="#F2994A"/>
</svg>
