<svg width="50" height="59" viewBox="0 0 50 59" fill="none" xmlns="http://www.w3.org/2000/svg">
<path d="M18.5627 16.2201C18.3017 15.2743 16.8401 14.9433 15.9528 15.4635C15.0654 15.9837 14.7 17.0241 14.7522 18.0171C14.8044 18.4428 14.9088 18.8684 15.1698 19.2467C15.744 20.0979 16.9445 20.3817 18.0407 20.3817C18.3539 24.3067 18.4583 28.2318 18.4583 32.1096C20.2853 33.5756 22.9996 34.0012 25.2441 33.1973C25.8705 32.9608 26.4969 32.6298 26.9145 32.1096C27.8541 30.8801 26.8101 28.2791 28.3761 27.6171C29.0547 27.3333 30.1508 27.5698 30.8816 27.3806C31.8734 27.1441 32.8652 26.6712 33.4915 25.8673C35.7883 22.9353 35.3707 18.7265 35.2663 15.3689C35.2141 13.761 35.3185 12.1532 35.5273 10.5453C35.6839 9.17388 35.9449 7.6606 35.1097 6.47834C34.0657 4.96506 31.8212 4.72861 29.8898 4.63402C26.6535 4.49215 23.1562 4.49215 20.5984 6.28918C18.9281 7.51873 17.9363 9.45762 18.0407 11.4438C18.0407 11.9167 18.1451 12.4369 17.7275 12.7679L18.5627 16.2201Z" fill="white"/>
<path d="M23.4694 8.55878C26.1315 10.2139 29.2634 11.8691 32.3954 11.1597C32.0822 13.9026 31.8212 16.6927 31.508 19.4355C28.637 19.3882 25.7139 19.2937 23.104 20.334C22.843 20.4286 22.582 20.5705 22.4776 20.8069C22.3732 20.9961 22.3732 21.2325 22.4254 21.469C22.582 23.266 22.843 25.0631 23.104 26.8128C22.1644 26.8601 21.1726 26.7655 20.233 26.6236C20.8072 27.5694 21.799 28.3261 22.9996 28.6571C23.2606 28.7517 23.5216 28.799 23.6782 28.9881C23.7825 29.13 23.7826 29.3665 23.7304 29.5556C23.5738 30.9743 23.4172 32.3457 23.2606 33.7644C24.7221 34.3319 26.4447 33.3388 27.0711 32.0147C27.6975 30.6906 27.5409 29.2246 27.3843 27.7586C28.9502 27.664 30.5684 27.4749 31.9256 26.7655C33.5959 25.867 33.7525 25.1103 34.1701 23.4079C34.6399 21.7055 35.4751 19.0099 35.4229 17.2602C35.3185 13.6661 35.2141 10.0248 35.1097 6.43073C34.8487 6.47802 34.5355 6.47801 34.2745 6.5253L23.4694 8.55878Z" fill="#CCE7FF"/>
<path d="M23.8871 27.4276C23.5218 27.333 23.5218 25.205 23.7306 24.8739C24.4091 23.6444 26.1839 24.3537 27.3845 24.2119C28.0631 24.1173 28.7938 23.9281 29.3158 23.5025C29.7856 23.1242 30.0988 22.6513 30.3076 22.1311C30.673 21.3272 30.934 20.4759 31.0384 19.6247C31.6648 19.9558 32.3956 20.0976 33.1263 20.0503C33.4917 20.0503 33.8571 19.9558 34.1703 20.0976C34.6923 20.3341 34.7445 20.9489 34.6923 21.469C34.6923 22.4148 34.5879 23.3607 34.2747 24.2592C33.6483 25.9616 31.9258 27.333 29.9422 27.6641C28.4284 27.9478 26.8625 27.6168 25.2965 27.7113C25.2965 27.7586 23.8871 27.4276 23.8871 27.4276Z" fill="#A7D5FF"/>
<path d="M0.0321045 49.3232C1.18048 45.2562 2.53765 40.9055 6.03497 38.1627C9.68888 35.278 15.0654 34.6632 18.3539 31.4948C19.3457 33.1026 21.4336 34.0957 23.4694 33.9539C25.5573 33.812 27.1755 32.4879 28.0629 30.8327C29.42 32.4879 31.7168 32.7716 33.8047 33.1972C36.0493 33.6701 38.0328 34.9469 39.5466 36.5075C42.9395 40.007 43.3049 44.5941 46.489 48.2355C47.3242 49.1813 48.2638 50.0798 48.9424 51.1202C49.0468 51.3093 49.1512 51.5458 49.099 51.7823C49.0468 51.9714 48.8902 52.066 48.7336 52.2079C46.8544 53.5793 44.4533 54.2886 42.1043 54.9507C34.0135 57.2206 25.4007 59.3487 17.2055 57.4098C13.6038 56.5586 10.2631 54.9507 6.97454 53.3428L0.0321045 49.3232Z" fill="#116CBE"/>
<path d="M4.46924 54.0995C5.40882 51.9242 6.2962 49.7016 7.23577 47.5262C7.65336 46.4858 8.12315 45.4454 8.90614 44.5942C9.06273 44.4523 9.21933 44.2632 9.48032 44.2632C9.79351 44.2632 10.0023 44.5942 10.1067 44.8307C11.3595 47.4789 11.9859 50.3636 12.2469 53.201C12.3513 54.2887 12.3513 55.5182 11.4639 56.2749C10.7331 56.937 9.63692 57.0788 8.64514 56.9842C7.65337 56.8897 6.60939 56.6532 5.61761 56.7478L4.46924 54.0995Z" fill="#00529B"/>
<path d="M23.9393 33.7646C24.0959 35.2306 26.1839 35.7981 27.0713 37.0276C27.4888 37.6424 27.6454 38.3518 27.7498 39.0611C28.5328 44.3576 28.063 49.7487 28.324 55.1398C28.3762 56.1802 28.4806 57.2678 29.0548 58.119C31.195 58.6392 33.5439 58.3082 35.6841 57.7407C37.8242 57.126 39.86 56.2747 42.0523 55.7545C42.4699 55.66 42.9397 55.5181 43.0963 55.1398C43.1485 54.9033 43.0441 54.6196 42.9397 54.3831C41.8435 51.924 41.7913 49.2285 41.4781 46.6275C41.1649 44.0266 40.5386 41.2365 38.6072 39.2976C37.0412 37.737 34.7967 36.8385 32.7609 35.8927C30.673 34.9469 28.5328 33.7173 27.541 31.8257C27.0713 32.8661 25.9229 33.67 24.6701 33.8119L23.9393 33.7646Z" fill="#00529B"/>
<path d="M14.8047 11.2072C14.9613 11.9639 15.1701 12.7205 15.4833 13.4299C15.6399 13.7609 15.7965 14.1392 16.0053 14.4702C16.1619 14.7067 16.5272 15.085 16.4229 15.3688C15.4833 15.3215 14.8047 16.6929 14.7003 17.3549C14.5437 18.3953 14.9613 19.5303 15.9009 20.1451C16.2663 20.3815 16.6838 20.5234 17.1014 20.5234C17.8322 21.9421 18.1976 23.4554 18.1976 24.9687C18.1976 25.6307 18.1454 26.2928 18.1454 27.0021C18.1454 27.8061 18.1976 28.61 18.1976 29.3666C18.1976 29.7923 18.3542 30.2652 18.302 30.7381C18.1976 31.3055 17.7278 31.542 17.258 31.8257C17.2058 31.873 17.1536 31.9203 17.1014 31.9676C17.0492 32.0149 16.997 32.0622 16.997 32.1095C16.9448 32.1568 16.9448 32.2513 16.997 32.3459C17.0492 32.3932 17.1536 32.4405 17.258 32.3932C17.3102 32.3459 17.3624 32.3459 17.4146 32.2986C17.4668 32.2513 17.519 32.2041 17.5712 32.1568C17.6756 32.0622 17.78 32.0149 17.8322 31.9203C17.9888 31.8257 18.0932 31.6839 18.2498 31.5893C19.1894 33.2917 21.2251 34.4267 23.3653 34.3321C25.5054 34.2375 27.3846 32.9607 28.2198 31.1637C28.3764 30.8799 27.8022 30.6435 27.6456 30.9745C27.5934 31.0691 27.5412 31.1164 27.489 31.211C27.5934 30.6435 27.489 30.0287 27.4368 29.4139C27.4368 28.941 27.3846 28.5154 27.3324 28.0425C29.1072 28.0425 30.9341 27.8534 32.3957 26.9076C33.9094 25.9145 34.6402 24.3539 34.9534 22.746C35.1622 21.6583 35.2144 20.4761 35.2666 19.3411C35.3188 18.4899 35.3188 17.6387 35.371 16.7875C35.4232 16.1254 35.4232 15.4633 35.4754 14.8013C35.4754 14.5175 35.4232 14.1392 35.4754 13.9028C35.5276 13.6663 35.7886 13.4771 35.893 13.288C36.0496 13.0042 36.1018 12.6732 36.154 12.3895C36.2584 12.0112 36.3106 11.5855 36.3628 11.2072C36.415 10.8289 36.4672 10.4506 36.4672 10.025C36.4672 9.64665 36.5194 9.12645 36.2062 8.84271C36.5194 8.65355 36.8326 8.36981 36.9892 8.08607C37.3024 7.42401 37.3024 6.62007 37.3024 5.91072C37.3024 5.57969 37.2502 5.24866 37.0936 4.91763C36.7282 3.40434 35.5276 2.08022 34.066 1.229C34.0138 1.18171 33.9094 1.13441 33.8572 1.08712C33.8572 1.08712 33.805 1.08712 33.805 1.03983C33.6485 0.945254 33.4919 0.897964 33.3353 0.803383C33.3353 0.803383 33.3353 0.803383 33.2831 0.803383C30.6209 -0.378871 27.3324 -0.0951299 24.5659 0.661513C22.0081 1.32358 19.4504 2.74228 18.5108 4.96492C18.4586 5.01221 18.4586 5.0595 18.4064 5.10679C18.302 5.10679 18.1976 5.10679 18.041 5.15408C16.4229 5.24866 14.8569 6.28904 14.2827 7.70775C13.8651 8.74813 14.1261 9.8831 14.5437 10.8762C14.7003 10.9708 14.7525 11.0654 14.8047 11.2072ZM34.9012 15.1796C34.7968 16.8347 34.7446 18.4899 34.6402 20.1451C33.7006 19.9559 32.8655 19.5303 31.9781 19.2938C30.8819 19.0101 29.7335 18.9155 28.6374 18.9628C27.5412 19.0101 26.445 19.2465 25.3488 19.5303C24.7747 19.6722 24.2527 19.8613 23.6785 20.0032C23.2609 20.1451 22.7911 20.2396 22.4257 20.4761C21.7471 19.6722 21.0685 18.8682 20.39 18.0643C20.0246 17.6387 19.6592 17.1658 19.346 16.7402C19.2416 16.5983 19.1372 16.4564 18.9806 16.2673C18.9806 16.22 18.9806 16.22 18.9806 16.1727C19.085 14.2811 18.9806 12.4368 18.7196 10.5924C19.3982 10.4979 20.0768 10.2614 20.651 9.83581C20.9641 9.59935 21.1729 9.3629 21.3817 9.03187C21.4861 8.89 21.5383 8.74813 21.5905 8.55897C22.4779 8.93729 23.5741 9.17374 24.4093 9.3629C26.0274 9.69394 27.6456 9.78852 29.2638 9.83581C30.8819 9.8831 32.6567 10.025 34.2226 9.59935C34.4314 9.55206 34.6402 9.45748 34.849 9.3629C35.0056 11.3964 35.0056 13.3353 34.9012 15.1796ZM15.2223 17.4022C15.3267 16.6929 15.7965 16.0308 16.5794 15.7944C17.1536 15.6525 17.78 15.7471 18.1976 16.1254C18.2498 16.22 18.302 16.3146 18.4064 16.4091C18.563 16.6456 18.7196 16.882 18.9284 17.1185C19.2938 17.5914 19.6592 18.0643 20.0246 18.5372C20.7554 19.4357 21.4861 20.3342 22.3213 21.2327C22.3735 21.28 22.3735 21.28 22.4257 21.3273C22.2169 22.415 22.3735 24.212 22.4257 24.4958C22.4779 25.0632 22.6345 25.6307 22.7911 26.1982C21.9559 25.4889 21.1207 24.8268 20.39 24.0701C19.8158 23.4554 19.2938 22.7933 18.7718 22.1785C18.7196 22.084 18.7196 21.9894 18.7196 21.8948C18.7196 21.2327 18.7718 20.5707 18.7718 19.9086C18.7718 19.7195 18.5108 19.6249 18.3542 19.7667C18.0932 20.0032 17.78 20.1451 17.4146 20.1451C17.3624 20.1451 17.3102 20.1451 17.258 20.1451C16.7882 20.1451 16.3185 19.9559 16.0053 19.6249C15.3267 19.0101 15.0657 18.1589 15.2223 17.4022ZM26.8626 31.4001C26.9148 31.542 27.0714 31.6366 27.228 31.5893C26.3406 32.8188 24.8791 33.6701 23.2609 33.7173C21.4339 33.7646 19.6592 32.8661 18.7196 31.4947C18.7196 31.4947 18.7196 31.4947 18.7718 31.4474C18.9806 31.1637 18.8762 30.7854 18.8762 30.4543C18.8762 30.076 18.824 29.6977 18.824 29.3666C18.824 28.8465 18.7718 28.3263 18.7718 27.8061C18.7718 26.9076 18.7718 25.9618 18.7718 25.0632C18.7718 24.3066 18.7718 23.5972 18.7718 22.8406C19.8158 24.2593 21.0685 25.5834 22.4257 26.6238C22.2691 26.5292 22.0603 26.4819 21.9037 26.3874C21.5383 26.1982 21.2251 26.6711 21.5905 26.8603C23.1565 27.7115 25.14 27.9479 26.9148 27.9952H26.967C26.9148 28.4681 26.8626 28.8937 26.8626 29.3666C26.8104 30.076 26.6538 30.7854 26.8626 31.4001ZM32.9177 25.7253C32.5523 26.1036 32.2391 26.4347 31.6649 26.6238C29.5247 27.4278 27.1758 27.3332 24.8791 27.1913C24.5137 27.144 23.9917 27.144 23.7307 26.8603C23.4697 26.6238 23.4175 26.1982 23.3653 25.9145C23.2087 25.347 23.0521 24.8268 22.9477 24.2593C22.8433 23.6918 22.7911 23.0771 22.7911 22.4623C22.7911 22.3204 22.7389 21.28 22.8955 20.8544C23.2609 20.8071 23.5741 20.6653 23.8873 20.5707C24.4093 20.4288 24.9313 20.2869 25.4532 20.1924C26.6016 19.9559 27.75 19.7667 28.8984 19.7195C30.0467 19.6722 31.1429 19.814 32.2391 20.1451C33.0221 20.3815 33.805 20.7125 34.6402 20.8544C34.6402 20.9017 34.6402 20.9017 34.6402 20.949C34.4836 22.6042 34.1704 24.4485 32.9177 25.7253Z" fill="#00529B"/>
<path d="M26.3403 16.2673L26.2359 16.3146H26.1837C26.1315 16.3619 26.0793 16.3619 26.0271 16.4092C26.1315 16.3619 26.0271 16.4092 26.0271 16.4092L25.9227 16.4565H25.8705L25.7661 16.5038H25.7139H25.6095H25.5573L25.4529 16.4565H25.4007L25.2963 16.4092L25.1919 16.3619L25.1397 16.3146L25.0875 16.2673L25.0353 16.1727C24.9831 16.0782 24.8265 16.0309 24.7221 16.0782C24.6177 16.1254 24.5656 16.22 24.5656 16.3619C24.6699 16.7875 25.0875 17.0712 25.5573 17.1658C25.8183 17.2131 26.0271 17.2131 26.2881 17.1185C26.4447 17.0712 26.6013 16.9767 26.7057 16.8821C26.7579 16.7875 26.8101 16.6929 26.8101 16.5983C26.8101 16.5038 26.8101 16.4092 26.7057 16.3619C26.5491 16.22 26.3925 16.1727 26.3403 16.2673Z" fill="#00529B"/>
<path d="M32.8652 16.22C32.813 16.2673 32.7086 16.3619 32.6564 16.4092C32.6042 16.4564 32.552 16.551 32.4476 16.5983L32.3432 16.6929L32.291 16.7402L32.2388 16.7875H32.1866H32.1344H32.0822C32.03 16.7875 32.0822 16.7875 32.0822 16.7875H32.03H31.9778H31.9256H31.8734H31.8212L31.769 16.7402V16.6929C31.7168 16.4564 31.2992 16.4564 31.247 16.6929C31.1948 16.7875 31.1948 16.9293 31.247 17.0239C31.2992 17.1658 31.4036 17.2604 31.508 17.355C31.6646 17.4968 31.9256 17.5441 32.1866 17.5441C32.4998 17.5441 32.7086 17.4022 32.9696 17.2604C33.074 17.1658 33.1784 17.0712 33.2306 16.9766C33.2828 16.8821 33.335 16.7875 33.3872 16.6929C33.4394 16.551 33.4394 16.4092 33.2828 16.3146C33.1784 16.1254 32.9696 16.1254 32.8652 16.22Z" fill="#00529B"/>
<path d="M25.5052 13.6661C25.6096 13.6188 25.6618 13.6188 25.7662 13.6188C25.8706 13.5715 26.0272 13.5715 26.1316 13.4769C26.236 13.3351 26.2882 13.0986 26.0794 13.0513C25.975 13.004 25.9228 13.004 25.7662 13.004L25.6096 13.0513C25.5053 13.0986 25.4009 13.0986 25.3487 13.1459C25.1399 13.1932 24.9311 13.2878 24.7223 13.3823C24.3569 13.5715 23.9915 13.7607 23.6783 13.9971C23.4695 14.139 23.7305 14.5173 23.9915 14.3754C24.3047 14.1863 24.6179 13.9971 24.9833 13.8553C25.1399 13.7607 25.2965 13.7134 25.5052 13.6661Z" fill="#00529B"/>
<path d="M33.7523 14.2811C33.2825 14.0446 32.7083 13.9027 32.1863 13.95C32.0819 13.95 31.9775 14.0446 31.9775 14.1392C31.9775 14.2338 32.0819 14.3284 32.1863 14.3284C32.2907 14.3284 32.3951 14.3757 32.4995 14.3757C32.5517 14.3757 32.6039 14.4229 32.6561 14.4229L32.7083 14.4702H32.7605C32.8649 14.5175 32.9693 14.5648 33.0737 14.6121L33.2303 14.7067C33.1781 14.6594 33.2303 14.7067 33.2303 14.7067L33.2825 14.754C33.4391 14.8958 33.6479 14.8958 33.8045 14.7067C33.9611 14.6121 33.9089 14.3757 33.7523 14.2811Z" fill="#00529B"/>
<path d="M36.7803 21.7531C37.4067 21.5166 38.0852 21.3748 38.7638 21.2329C38.7116 21.5166 38.6594 21.8004 38.7638 22.0368C38.8682 22.4624 39.2858 22.557 39.7034 22.4624C40.8518 22.226 41.948 21.9895 43.0963 21.7531C43.4617 21.6585 43.3051 21.1383 42.9397 21.2329C42.1046 21.3748 41.2694 21.5639 40.4342 21.7058C40.2254 21.7531 40.0166 21.8004 39.86 21.8004C39.7556 21.8004 39.6512 21.8477 39.5468 21.8477C39.4946 21.8477 39.4424 21.8477 39.3902 21.8477C39.338 21.7531 39.3902 21.4693 39.3902 21.3748C39.4424 21.1856 39.4424 20.9964 39.5468 20.8073C39.599 20.5708 39.3902 20.3817 39.1292 20.429C38.294 20.5708 37.4589 20.8073 36.6237 21.1383C36.3105 21.3748 36.4149 21.895 36.7803 21.7531Z" fill="#00529B"/>
<path d="M38.6594 26.3399C38.6594 26.6709 38.8682 26.9074 39.2336 26.9547C39.4424 27.002 39.599 26.9547 39.8077 26.9074C40.0165 26.8601 40.2775 26.8601 40.4863 26.8128C40.9039 26.7655 41.3737 26.7182 41.7913 26.6709C42.3133 26.6236 42.2611 25.9143 41.6869 26.0089C40.9561 26.1034 40.2253 26.198 39.4424 26.2926C39.3902 26.2926 39.2858 26.2926 39.338 26.3399C39.2858 26.2926 39.338 26.1034 39.338 26.0561C39.338 25.8197 39.338 25.5832 39.2336 25.3468C39.1814 25.2049 38.9726 25.1576 38.816 25.2049C38.5028 25.2522 38.1896 25.3468 37.8764 25.3941C37.7198 25.4414 37.6154 25.4414 37.4588 25.4887H37.4066C37.3544 25.4414 37.3022 25.4414 37.1978 25.4414C36.8846 25.4414 36.7802 25.7724 36.9368 25.9616C37.1456 26.2453 37.5632 26.1034 37.8764 26.0561C38.1374 26.0089 38.3462 25.9616 38.6072 25.9143C38.6072 25.9616 38.6072 26.0089 38.6072 26.0089C38.7116 26.1034 38.6594 26.198 38.6594 26.3399Z" fill="#00529B"/>
<path d="M47.5333 50.6471C45.5498 47.4314 44.5058 43.8373 42.7832 40.527C41.2173 37.595 38.7639 34.2847 35.0056 33.4808C34.0138 33.2443 32.9699 33.197 31.9781 33.0079C31.4561 32.9133 30.9863 32.8187 30.5165 32.5822C29.9423 32.3458 29.7335 32.0148 29.4203 31.5419C29.3159 31.4 29.1594 31.4473 29.1594 31.5891L29.1072 31.5419L29.055 31.4946H29.0028L28.794 31.3527L28.7418 31.3054L28.6896 31.2108L28.6374 31.1635V31.1162C28.5852 31.0217 28.533 30.9744 28.4286 31.0217C28.3242 31.069 28.272 31.1162 28.3242 31.2108C28.4286 31.4946 28.6896 31.7783 28.9506 31.9202C28.8984 31.9202 28.8984 31.9675 28.8462 32.0148C26.445 36.8856 19.9724 36.8856 17.0492 32.5822V32.535C16.997 32.4877 16.997 32.4404 16.9448 32.3931C16.8926 32.2985 16.6838 32.3458 16.736 32.4877C16.736 32.5349 16.7882 32.5822 16.7882 32.6295C15.0135 33.6226 13.0821 34.4266 11.203 35.2778C9.32381 36.0817 7.28806 36.8856 5.6177 38.0206C4.15614 39.0137 3.11216 40.4324 2.38138 41.8984C1.5462 43.6009 0.867612 45.4925 0.606618 47.3841C0.554419 47.7151 1.12861 47.7624 1.233 47.4786C1.85939 45.6816 2.17258 43.79 3.05996 42.0876C3.84294 40.5743 4.99132 39.1083 6.55728 38.2098C9.898 36.2709 13.6041 34.994 16.8404 32.866C19.2416 37.926 27.228 37.4058 29.316 32.2985C29.316 32.2512 29.316 32.2039 29.316 32.1566C29.6291 32.6295 29.9945 32.9606 30.6209 33.197C31.5083 33.528 32.4479 33.6226 33.3875 33.7645C34.2226 33.9064 35.0578 34.0009 35.8408 34.332C36.7804 34.7103 37.6156 35.2305 38.3985 35.8453C41.5305 38.3516 42.992 42.1349 44.4536 45.587C45.2366 47.4314 46.0196 49.2757 47.1157 51.0254C47.2201 51.12 47.6899 50.8835 47.5333 50.6471Z" fill="#00529B"/>
<path d="M17.2575 18.6791C17.4663 18.7737 17.6751 18.6318 17.7273 18.49C17.7795 18.3954 17.7795 18.3481 17.7795 18.2535C17.7795 18.2062 17.7795 18.1117 17.7795 18.0644C17.7795 17.9225 17.7795 17.7806 17.7273 17.6388C17.6751 17.4023 17.5185 17.1659 17.3097 17.024C17.1009 16.8821 16.84 16.8348 16.6312 16.8821C16.4224 16.9294 16.2658 17.0713 16.2136 17.2604C16.1614 17.4496 16.1614 17.686 16.3702 17.7806C16.4746 17.8752 16.6312 17.7333 16.5268 17.6388C16.4224 17.5442 16.4224 17.4496 16.4746 17.355C16.4746 17.3077 16.5268 17.2604 16.579 17.2131C16.6312 17.1659 16.6834 17.1659 16.7356 17.1659C16.8922 17.1186 16.9965 17.2131 17.1009 17.2604L17.1531 17.3077L17.2053 17.4023V17.4496V17.4969V17.5442V17.5915V17.686V17.7333V17.7806C17.2053 17.8279 17.2053 17.8752 17.1531 17.9225V17.9698V18.0171C17.1009 18.0644 17.0487 18.1589 17.0487 18.2062C16.9966 18.3954 17.0488 18.6318 17.2575 18.6791Z" fill="#00529B"/>
<path d="M37.6154 47.7624C37.25 45.256 36.989 42.7496 36.5192 40.2905C36.5192 40.2432 36.4148 40.2432 36.4148 40.2905C36.4148 42.7969 36.8324 45.3033 37.1456 47.8096C37.3022 48.9919 37.4588 50.1742 37.6676 51.3091C37.8764 52.5387 37.9286 53.9574 38.3984 55.0923C38.5027 55.2815 38.8159 55.2815 38.8681 55.045C38.9203 53.9101 38.5027 52.6805 38.294 51.5456C37.9808 50.316 37.772 49.0392 37.6154 47.7624Z" fill="#00529B"/>
<path d="M9.89784 45.3978C9.68904 46.0599 9.79344 46.8166 9.74124 47.4786C9.68904 48.188 9.63684 48.8973 9.58465 49.6067C9.48025 51.0727 9.32365 52.586 9.06266 54.0519C9.01046 54.4303 9.63684 54.5721 9.68904 54.1938C9.89784 52.7278 10.0544 51.2618 10.1588 49.7958C10.211 49.0392 10.2632 48.3298 10.2632 47.5732C10.2632 46.8638 10.3676 46.0599 10.1588 45.3978C10.1066 45.256 9.89784 45.256 9.89784 45.3978Z" fill="#00529B"/>
<path d="M30.1509 21.9894C29.7856 21.9894 29.4202 21.9894 29.0548 21.9894C28.324 21.9894 27.5932 22.0367 26.8624 22.084C26.497 22.1313 26.497 22.6042 26.8624 22.6042C27.5932 22.6042 28.324 22.6042 29.0026 22.6042C29.368 22.6042 29.6812 22.6515 30.0465 22.6515C30.4119 22.6515 30.8295 22.7461 31.1427 22.6515C31.4037 22.6042 31.4559 22.2259 31.1949 22.1313C30.8817 21.9894 30.5163 22.0367 30.1509 21.9894Z" fill="#00529B"/>
<path d="M30.5685 24.6375C29.107 24.9685 27.541 25.0158 26.0794 24.6848C25.8184 24.6375 25.6618 25.0158 25.975 25.0631C27.541 25.536 29.1592 25.5833 30.7773 25.205C31.1949 25.1577 30.9861 24.5429 30.5685 24.6375Z" fill="#00529B"/>
</svg>
